<?xml version="1.0" encoding="UTF-8" standalone="no"?><svg xmlns="http://www.w3.org/2000/svg" xmlns:xlink="http://www.w3.org/1999/xlink" contentScriptType="application/ecmascript" contentStyleType="text/css" height="207px" preserveAspectRatio="none" style="width:613px;height:207px;background:#FFFFFF;" version="1.1" viewBox="0 0 613 207" width="613px" zoomAndPan="magnify"><defs><filter height="300%" id="f1dhegsqw5dcr8" width="300%" x="-1" y="-1"><feGaussianBlur result="blurOut" stdDeviation="2.0"/><feColorMatrix in="blurOut" result="blurOut2" type="matrix" values="0 0 0 0 0 0 0 0 0 0 0 0 0 0 0 0 0 0 .4 0"/><feOffset dx="4.0" dy="4.0" in="blurOut2" result="blurOut3"/><feBlend in="SourceGraphic" in2="blurOut3" mode="normal"/></filter></defs><g><!--MD5=[e470af0d5d20605c8fb595ea0e339492]
class Deskband--><rect codeLine="1" fill="#FEFECE" filter="url(#f1dhegsqw5dcr8)" height="186.3594" id="Deskband" style="stroke:#A80036;stroke-width:1.5;" width="592" x="7" y="7"/><ellipse cx="270.25" cy="23" fill="#ADD1B2" rx="11" ry="11" style="stroke:#A80036;stroke-width:1.0;"/><path d="M273.0156,18.875 Q273.1719,18.6563 273.3594,18.5469 Q273.5469,18.4375 273.7656,18.4375 Q274.1406,18.4375 274.375,18.6953 Q274.6094,18.9531 274.6094,19.5625 L274.6094,21.0156 Q274.6094,21.625 274.375,21.8906 Q274.1406,22.1563 273.7656,22.1563 Q273.4219,22.1563 273.2188,21.9531 Q273.0156,21.7656 272.9063,21.25 Q272.8594,20.8906 272.6719,20.7031 Q272.3438,20.3281 271.7344,20.1094 Q271.125,19.8906 270.5,19.8906 Q269.7344,19.8906 269.1016,20.2188 Q268.4688,20.5469 267.9766,21.2969 Q267.4844,22.0469 267.4844,23.0781 L267.4844,24.1719 Q267.4844,25.4063 268.375,26.2266 Q269.2656,27.0469 270.8594,27.0469 Q271.7969,27.0469 272.4531,26.7969 Q272.8438,26.6406 273.2656,26.2031 Q273.5313,25.9375 273.6797,25.8594 Q273.8281,25.7813 274.0313,25.7813 Q274.3594,25.7813 274.6172,26.0391 Q274.875,26.2969 274.875,26.6406 Q274.875,26.9844 274.5313,27.3906 Q274.0313,27.9688 273.2344,28.2969 Q272.1563,28.75 270.8594,28.75 Q269.3438,28.75 268.1406,28.125 Q267.1563,27.625 266.4688,26.5547 Q265.7813,25.4844 265.7813,24.2031 L265.7813,23.0469 Q265.7813,21.7188 266.3984,20.5703 Q267.0156,19.4219 268.1094,18.8047 Q269.2031,18.1875 270.4375,18.1875 Q271.1719,18.1875 271.8203,18.3516 Q272.4688,18.5156 273.0156,18.875 Z " fill="#000000"/><text fill="#000000" font-family="sans-serif" font-size="12" lengthAdjust="spacing" textLength="57" x="290.75" y="27.9102">Deskband</text><line style="stroke:#A80036;stroke-width:1.5;" x1="8" x2="598" y1="39" y2="39"/><rect fill="none" height="6" style="stroke:#C82930;stroke-width:1.0;" width="6" x="15" y="47"/><text fill="#000000" font-family="sans-serif" font-size="11" lengthAdjust="spacing" text-decoration="underline" textLength="82" x="27" y="54.4189">_control : Control</text><ellipse cx="18" cy="63.8359" rx="3" ry="3" style="stroke:#038048;stroke-width:1.0;fill:none;"/><text fill="#000000" font-family="sans-serif" font-size="11" lengthAdjust="spacing" textLength="81" x="27" y="68.2549">Size : Size «get»</text><polygon fill="none" points="18,72.6719,22,76.6719,18,80.6719,14,76.6719" style="stroke:#B38D22;stroke-width:1.0;"/><text fill="#000000" font-family="sans-serif" font-size="11" lengthAdjust="spacing" textLength="162" x="27" y="82.0908">«override» Control : Control «get»</text><line style="stroke:#A80036;stroke-width:1.5;" x1="8" x2="598" y1="88.5078" y2="88.5078"/><rect fill="#F24D5C" height="6" style="stroke:#C82930;stroke-width:1.0;" width="6" x="15" y="96.5078"/><text fill="#000000" font-family="sans-serif" font-size="11" lengthAdjust="spacing" text-decoration="underline" textLength="188" x="27" y="103.9268">«extern» SetProcessDPIAware() : bool</text><ellipse cx="18" cy="113.3438" fill="#84BE84" rx="3" ry="3" style="stroke:#038048;stroke-width:1.0;"/><text fill="#000000" font-family="sans-serif" font-size="11" lengthAdjust="spacing" textLength="56" x="27" y="117.7627">Deskband()</text><text fill="#000000" font-family="sans-serif" font-size="11" lengthAdjust="spacing" text-decoration="underline" textLength="240" x="27" y="131.5986">OnProcessExit(sender:object, e:EventArgs) : void</text><rect fill="#F24D5C" height="6" style="stroke:#C82930;stroke-width:1.0;" width="6" x="15" y="138.0156"/><text fill="#000000" font-family="sans-serif" font-size="11" lengthAdjust="spacing" textLength="566" x="27" y="145.4346">TaskbarInfo_TaskbarOrientationChanged(sender:object, e:CSDeskBand.TaskbarOrientationChangedEventArgs) : void</text><rect fill="#F24D5C" height="6" style="stroke:#C82930;stroke-width:1.0;" width="6" x="15" y="151.8516"/><text fill="#000000" font-family="sans-serif" font-size="11" lengthAdjust="spacing" textLength="510" x="27" y="159.2705">TaskbarInfo_TaskbarEdgeChanged(sender:object, e:CSDeskBand.TaskbarEdgeChangedEventArgs) : void</text><rect fill="#F24D5C" height="6" style="stroke:#C82930;stroke-width:1.0;" width="6" x="15" y="165.6875"/><text fill="#000000" font-family="sans-serif" font-size="11" lengthAdjust="spacing" textLength="504" x="27" y="173.1064">TaskbarInfo_TaskbarSizeChanged(sender:object, e:CSDeskBand.TaskbarSizeChangedEventArgs) : void</text><rect fill="#F24D5C" height="6" style="stroke:#C82930;stroke-width:1.0;" width="6" x="15" y="179.5234"/><text fill="#000000" font-family="sans-serif" font-size="11" lengthAdjust="spacing" textLength="171" x="27" y="186.9424">Ctl_OnChangeSize(size:Size) : void</text><!--MD5=[3dd680b28b59acfde646104dd7310006]
@startuml
class Deskband {
    - {static} _control : Control
    + Size : Size <<get>>
    - {static} <<extern>> SetProcessDPIAware() : bool
    + Deskband()
    {static} OnProcessExit(sender:object, e:EventArgs) : void
    - TaskbarInfo_TaskbarOrientationChanged(sender:object, e:CSDeskBand.TaskbarOrientationChangedEventArgs) : void
    - TaskbarInfo_TaskbarEdgeChanged(sender:object, e:CSDeskBand.TaskbarEdgeChangedEventArgs) : void
    - TaskbarInfo_TaskbarSizeChanged(sender:object, e:CSDeskBand.TaskbarSizeChangedEventArgs) : void
    - Ctl_OnChangeSize(size:Size) : void
    # <<override>> Control : Control <<get>>
}
@enduml

PlantUML version 1.2021.10(Mon Aug 30 10:43:48 BRT 2021)
(GPL source distribution)
Java Runtime: Java(TM) SE Runtime Environment
JVM: Java HotSpot(TM) Client VM
Default Encoding: Cp1252
Language: pt
Country: BR
--></g></svg>