<?xml version="1.0" encoding="UTF-8" standalone="no"?><svg xmlns="http://www.w3.org/2000/svg" xmlns:xlink="http://www.w3.org/1999/xlink" contentScriptType="application/ecmascript" contentStyleType="text/css" height="138px" preserveAspectRatio="none" style="width:305px;height:138px;background:#FFFFFF;" version="1.1" viewBox="0 0 305 138" width="305px" zoomAndPan="magnify"><defs><filter height="300%" id="f1qbkaqqy0l4q" width="300%" x="-1" y="-1"><feGaussianBlur result="blurOut" stdDeviation="2.0"/><feColorMatrix in="blurOut" result="blurOut2" type="matrix" values="0 0 0 0 0 0 0 0 0 0 0 0 0 0 0 0 0 0 .4 0"/><feOffset dx="4.0" dy="4.0" in="blurOut2" result="blurOut3"/><feBlend in="SourceGraphic" in2="blurOut3" mode="normal"/></filter></defs><g><!--MD5=[4cecd24353f9ea03cdfd4d5cbad14e51]
class GithubUpdater--><rect codeLine="1" fill="#FEFECE" filter="url(#f1qbkaqqy0l4q)" height="117.1797" id="GithubUpdater" style="stroke:#A80036;stroke-width:1.5;" width="284" x="7" y="7"/><ellipse cx="104.75" cy="23" fill="#ADD1B2" rx="11" ry="11" style="stroke:#A80036;stroke-width:1.0;"/><path d="M107.5156,18.875 Q107.6719,18.6563 107.8594,18.5469 Q108.0469,18.4375 108.2656,18.4375 Q108.6406,18.4375 108.875,18.6953 Q109.1094,18.9531 109.1094,19.5625 L109.1094,21.0156 Q109.1094,21.625 108.875,21.8906 Q108.6406,22.1563 108.2656,22.1563 Q107.9219,22.1563 107.7188,21.9531 Q107.5156,21.7656 107.4063,21.25 Q107.3594,20.8906 107.1719,20.7031 Q106.8438,20.3281 106.2344,20.1094 Q105.625,19.8906 105,19.8906 Q104.2344,19.8906 103.6016,20.2188 Q102.9688,20.5469 102.4766,21.2969 Q101.9844,22.0469 101.9844,23.0781 L101.9844,24.1719 Q101.9844,25.4063 102.875,26.2266 Q103.7656,27.0469 105.3594,27.0469 Q106.2969,27.0469 106.9531,26.7969 Q107.3438,26.6406 107.7656,26.2031 Q108.0313,25.9375 108.1797,25.8594 Q108.3281,25.7813 108.5313,25.7813 Q108.8594,25.7813 109.1172,26.0391 Q109.375,26.2969 109.375,26.6406 Q109.375,26.9844 109.0313,27.3906 Q108.5313,27.9688 107.7344,28.2969 Q106.6563,28.75 105.3594,28.75 Q103.8438,28.75 102.6406,28.125 Q101.6563,27.625 100.9688,26.5547 Q100.2813,25.4844 100.2813,24.2031 L100.2813,23.0469 Q100.2813,21.7188 100.8984,20.5703 Q101.5156,19.4219 102.6094,18.8047 Q103.7031,18.1875 104.9375,18.1875 Q105.6719,18.1875 106.3203,18.3516 Q106.9688,18.5156 107.5156,18.875 Z " fill="#000000"/><text fill="#000000" font-family="sans-serif" font-size="12" lengthAdjust="spacing" textLength="80" x="125.25" y="27.9102">GithubUpdater</text><line style="stroke:#A80036;stroke-width:1.5;" x1="8" x2="290" y1="39" y2="39"/><rect fill="none" height="6" style="stroke:#C82930;stroke-width:1.0;" width="6" x="15" y="47"/><text fill="#000000" font-family="sans-serif" font-size="11" lengthAdjust="spacing" textLength="78" x="27" y="54.4189">user : string = ""</text><rect fill="none" height="6" style="stroke:#C82930;stroke-width:1.0;" width="6" x="15" y="60.8359"/><text fill="#000000" font-family="sans-serif" font-size="11" lengthAdjust="spacing" textLength="89" x="27" y="68.2549">project : string = ""</text><line style="stroke:#A80036;stroke-width:1.5;" x1="8" x2="290" y1="74.6719" y2="74.6719"/><ellipse cx="18" cy="85.6719" fill="#84BE84" rx="3" ry="3" style="stroke:#038048;stroke-width:1.0;"/><text fill="#000000" font-family="sans-serif" font-size="11" lengthAdjust="spacing" textLength="198" x="27" y="90.0908">GithubUpdater(user:string, project:string)</text><ellipse cx="18" cy="99.5078" fill="#84BE84" rx="3" ry="3" style="stroke:#038048;stroke-width:1.0;"/><text fill="#000000" font-family="sans-serif" font-size="11" lengthAdjust="spacing" textLength="81" x="27" y="103.9268">GetURL() : string</text><ellipse cx="18" cy="113.3438" fill="#84BE84" rx="3" ry="3" style="stroke:#038048;stroke-width:1.0;"/><text fill="#000000" font-family="sans-serif" font-size="11" lengthAdjust="spacing" textLength="258" x="27" y="117.7627">«async» GetLastestVersionAsync() : Task&lt;Version&gt;</text><!--MD5=[2d6d719b3ab97b29295644fed3ef89a1]
@startuml
class GithubUpdater {
    - user : string = ""
    - project : string = ""
    + GithubUpdater(user:string, project:string)
    + GetURL() : string
    + <<async>> GetLastestVersionAsync() : Task<Version>
}
@enduml

PlantUML version 1.2021.10(Mon Aug 30 10:43:48 BRT 2021)
(GPL source distribution)
Java Runtime: Java(TM) SE Runtime Environment
JVM: Java HotSpot(TM) Client VM
Default Encoding: Cp1252
Language: pt
Country: BR
--></g></svg>