<?xml version="1.0" encoding="UTF-8" standalone="no"?><svg xmlns="http://www.w3.org/2000/svg" xmlns:xlink="http://www.w3.org/1999/xlink" contentScriptType="application/ecmascript" contentStyleType="text/css" height="387px" preserveAspectRatio="none" style="width:455px;height:387px;background:#FFFFFF;" version="1.1" viewBox="0 0 455 387" width="455px" zoomAndPan="magnify"><defs><filter height="300%" id="f80wtfhyotmmx" width="300%" x="-1" y="-1"><feGaussianBlur result="blurOut" stdDeviation="2.0"/><feColorMatrix in="blurOut" result="blurOut2" type="matrix" values="0 0 0 0 0 0 0 0 0 0 0 0 0 0 0 0 0 0 .4 0"/><feOffset dx="4.0" dy="4.0" in="blurOut2" result="blurOut3"/><feBlend in="SourceGraphic" in2="blurOut3" mode="normal"/></filter></defs><g><!--MD5=[260d3dd71d6106bb51040e9de7ebd762]
class GraphTheme--><rect codeLine="1" fill="#FEFECE" filter="url(#f80wtfhyotmmx)" height="366.2266" id="GraphTheme" style="stroke:#A80036;stroke-width:1.5;" width="434" x="7" y="7"/><ellipse cx="183.25" cy="23" fill="#ADD1B2" rx="11" ry="11" style="stroke:#A80036;stroke-width:1.0;"/><path d="M186.0156,18.875 Q186.1719,18.6563 186.3594,18.5469 Q186.5469,18.4375 186.7656,18.4375 Q187.1406,18.4375 187.375,18.6953 Q187.6094,18.9531 187.6094,19.5625 L187.6094,21.0156 Q187.6094,21.625 187.375,21.8906 Q187.1406,22.1563 186.7656,22.1563 Q186.4219,22.1563 186.2188,21.9531 Q186.0156,21.7656 185.9063,21.25 Q185.8594,20.8906 185.6719,20.7031 Q185.3438,20.3281 184.7344,20.1094 Q184.125,19.8906 183.5,19.8906 Q182.7344,19.8906 182.1016,20.2188 Q181.4688,20.5469 180.9766,21.2969 Q180.4844,22.0469 180.4844,23.0781 L180.4844,24.1719 Q180.4844,25.4063 181.375,26.2266 Q182.2656,27.0469 183.8594,27.0469 Q184.7969,27.0469 185.4531,26.7969 Q185.8438,26.6406 186.2656,26.2031 Q186.5313,25.9375 186.6797,25.8594 Q186.8281,25.7813 187.0313,25.7813 Q187.3594,25.7813 187.6172,26.0391 Q187.875,26.2969 187.875,26.6406 Q187.875,26.9844 187.5313,27.3906 Q187.0313,27.9688 186.2344,28.2969 Q185.1563,28.75 183.8594,28.75 Q182.3438,28.75 181.1406,28.125 Q180.1563,27.625 179.4688,26.5547 Q178.7813,25.4844 178.7813,24.2031 L178.7813,23.0469 Q178.7813,21.7188 179.3984,20.5703 Q180.0156,19.4219 181.1094,18.8047 Q182.2031,18.1875 183.4375,18.1875 Q184.1719,18.1875 184.8203,18.3516 Q185.4688,18.5156 186.0156,18.875 Z " fill="#000000"/><text fill="#000000" font-family="sans-serif" font-size="12" lengthAdjust="spacing" textLength="73" x="203.75" y="27.9102">GraphTheme</text><line style="stroke:#A80036;stroke-width:1.5;" x1="8" x2="440" y1="39" y2="39"/><ellipse cx="18" cy="50" rx="3" ry="3" style="stroke:#038048;stroke-width:1.0;fill:none;"/><text fill="#000000" font-family="sans-serif" font-size="11" lengthAdjust="spacing" text-decoration="underline" textLength="212" x="27" y="54.4189">«readonly» LATESTTHEMEVERSION : int = 1</text><ellipse cx="18" cy="63.8359" rx="3" ry="3" style="stroke:#038048;stroke-width:1.0;fill:none;"/><text fill="#000000" font-family="sans-serif" font-size="11" lengthAdjust="spacing" textLength="90" x="27" y="68.2549">ThemeVersion : int</text><ellipse cx="18" cy="77.6719" rx="3" ry="3" style="stroke:#038048;stroke-width:1.0;fill:none;"/><text fill="#000000" font-family="sans-serif" font-size="11" lengthAdjust="spacing" textLength="136" x="27" y="82.0908">BarColor : Color «get» «set»</text><ellipse cx="18" cy="91.5078" rx="3" ry="3" style="stroke:#038048;stroke-width:1.0;fill:none;"/><text fill="#000000" font-family="sans-serif" font-size="11" lengthAdjust="spacing" textLength="140" x="27" y="95.9268">TextColor : Color «get» «set»</text><ellipse cx="18" cy="105.3438" rx="3" ry="3" style="stroke:#038048;stroke-width:1.0;fill:none;"/><text fill="#000000" font-family="sans-serif" font-size="11" lengthAdjust="spacing" textLength="181" x="27" y="109.7627">TextShadowColor : Color «get» «set»</text><ellipse cx="18" cy="119.1797" rx="3" ry="3" style="stroke:#038048;stroke-width:1.0;fill:none;"/><text fill="#000000" font-family="sans-serif" font-size="11" lengthAdjust="spacing" textLength="138" x="27" y="123.5986">TitleColor : Color «get» «set»</text><ellipse cx="18" cy="133.0156" rx="3" ry="3" style="stroke:#038048;stroke-width:1.0;fill:none;"/><text fill="#000000" font-family="sans-serif" font-size="11" lengthAdjust="spacing" textLength="179" x="27" y="137.4346">TitleShadowColor : Color «get» «set»</text><ellipse cx="18" cy="146.8516" rx="3" ry="3" style="stroke:#038048;stroke-width:1.0;fill:none;"/><text fill="#000000" font-family="sans-serif" font-size="11" lengthAdjust="spacing" textLength="178" x="27" y="151.2705">TitleFont : string «get» «set» = "Arial"</text><ellipse cx="18" cy="160.6875" rx="3" ry="3" style="stroke:#038048;stroke-width:1.0;fill:none;"/><text fill="#000000" font-family="sans-serif" font-size="11" lengthAdjust="spacing" textLength="261" x="27" y="165.1064">TitleFontStyle : System.Drawing.FontStyle «get» «set»</text><ellipse cx="18" cy="174.5234" rx="3" ry="3" style="stroke:#038048;stroke-width:1.0;fill:none;"/><text fill="#000000" font-family="sans-serif" font-size="11" lengthAdjust="spacing" textLength="152" x="27" y="178.9424">TitleSize : float «get» «set» = 7f</text><ellipse cx="18" cy="188.3594" rx="3" ry="3" style="stroke:#038048;stroke-width:1.0;fill:none;"/><text fill="#000000" font-family="sans-serif" font-size="11" lengthAdjust="spacing" textLength="223" x="27" y="192.7783">CurrentValueFont : string «get» «set» = "Arial"</text><ellipse cx="18" cy="202.1953" rx="3" ry="3" style="stroke:#038048;stroke-width:1.0;fill:none;"/><text fill="#000000" font-family="sans-serif" font-size="11" lengthAdjust="spacing" textLength="306" x="27" y="206.6143">CurrentValueFontStyle : System.Drawing.FontStyle «get» «set»</text><ellipse cx="18" cy="216.0313" rx="3" ry="3" style="stroke:#038048;stroke-width:1.0;fill:none;"/><text fill="#000000" font-family="sans-serif" font-size="11" lengthAdjust="spacing" textLength="197" x="27" y="220.4502">CurrentValueSize : float «get» «set» = 7f</text><ellipse cx="18" cy="229.8672" rx="3" ry="3" style="stroke:#038048;stroke-width:1.0;fill:none;"/><text fill="#000000" font-family="sans-serif" font-size="11" lengthAdjust="spacing" textLength="193" x="27" y="234.2861">StackedColors : List&lt;Color&gt; «get» «set»</text><line style="stroke:#A80036;stroke-width:1.5;" x1="8" x2="440" y1="240.7031" y2="240.7031"/><ellipse cx="18" cy="251.7031" fill="#84BE84" rx="3" ry="3" style="stroke:#038048;stroke-width:1.0;"/><text fill="#000000" font-family="sans-serif" font-size="11" lengthAdjust="spacing" textLength="158" x="27" y="256.1221">getNthColor(total:int, n:int) : Color</text><ellipse cx="18" cy="265.5391" fill="#84BE84" rx="3" ry="3" style="stroke:#038048;stroke-width:1.0;"/><text fill="#000000" font-family="sans-serif" font-size="11" lengthAdjust="spacing" textLength="408" x="27" y="269.958">GetColorGradient(from:Color, to:Color, totalNumberOfColors:int) : IEnumerable&lt;Color&gt;</text><ellipse cx="18" cy="279.375" fill="#84BE84" rx="3" ry="3" style="stroke:#038048;stroke-width:1.0;"/><text fill="#000000" font-family="sans-serif" font-size="11" lengthAdjust="spacing" textLength="168" x="27" y="283.7939">CopyTo(theme:GraphTheme) : void</text><ellipse cx="18" cy="293.2109" fill="#84BE84" rx="3" ry="3" style="stroke:#038048;stroke-width:1.0;"/><text fill="#000000" font-family="sans-serif" font-size="11" lengthAdjust="spacing" text-decoration="underline" textLength="167" x="27" y="297.6299">DefaultDarkTheme() : GraphTheme</text><ellipse cx="18" cy="307.0469" fill="#84BE84" rx="3" ry="3" style="stroke:#038048;stroke-width:1.0;"/><text fill="#000000" font-family="sans-serif" font-size="11" lengthAdjust="spacing" text-decoration="underline" textLength="168" x="27" y="311.4658">DefaultLightTheme() : GraphTheme</text><ellipse cx="18" cy="320.8828" fill="#84BE84" rx="3" ry="3" style="stroke:#038048;stroke-width:1.0;"/><text fill="#000000" font-family="sans-serif" font-size="11" lengthAdjust="spacing" text-decoration="underline" textLength="148" x="27" y="325.3018">ReadFromDisk() : GraphTheme</text><ellipse cx="18" cy="334.7188" fill="#84BE84" rx="3" ry="3" style="stroke:#038048;stroke-width:1.0;"/><text fill="#000000" font-family="sans-serif" font-size="11" lengthAdjust="spacing" textLength="94" x="27" y="339.1377">SaveToDisk() : bool</text><rect fill="#F24D5C" height="6" style="stroke:#C82930;stroke-width:1.0;" width="6" x="15" y="345.5547"/><text fill="#000000" font-family="sans-serif" font-size="11" lengthAdjust="spacing" textLength="78" x="27" y="352.9736">Upgrade() : bool</text><ellipse cx="18" cy="362.3906" fill="#84BE84" rx="3" ry="3" style="stroke:#038048;stroke-width:1.0;"/><text fill="#000000" font-family="sans-serif" font-size="11" lengthAdjust="spacing" text-decoration="underline" textLength="175" x="27" y="366.8096">IsCustom(theme:GraphTheme) : bool</text><!--MD5=[d82b8e575a7fca541009857fdbb62c3f]
@startuml
class GraphTheme {
    + {static} <<readonly>> LATESTTHEMEVERSION : int = 1
    + ThemeVersion : int
    + BarColor : Color <<get>> <<set>>
    + TextColor : Color <<get>> <<set>>
    + TextShadowColor : Color <<get>> <<set>>
    + TitleColor : Color <<get>> <<set>>
    + TitleShadowColor : Color <<get>> <<set>>
    + TitleFont : string <<get>> <<set>> = "Arial"
    + TitleFontStyle : System.Drawing.FontStyle <<get>> <<set>>
    + TitleSize : float <<get>> <<set>> = 7f
    + CurrentValueFont : string <<get>> <<set>> = "Arial"
    + CurrentValueFontStyle : System.Drawing.FontStyle <<get>> <<set>>
    + CurrentValueSize : float <<get>> <<set>> = 7f
    + StackedColors : List<Color> <<get>> <<set>>
    + getNthColor(total:int, n:int) : Color
    + GetColorGradient(from:Color, to:Color, totalNumberOfColors:int) : IEnumerable<Color>
    + CopyTo(theme:GraphTheme) : void
    + {static} DefaultDarkTheme() : GraphTheme
    + {static} DefaultLightTheme() : GraphTheme
    + {static} ReadFromDisk() : GraphTheme
    + SaveToDisk() : bool
    - Upgrade() : bool
    + {static} IsCustom(theme:GraphTheme) : bool
}
@enduml

PlantUML version 1.2021.10(Mon Aug 30 10:43:48 BRT 2021)
(GPL source distribution)
Java Runtime: Java(TM) SE Runtime Environment
JVM: Java HotSpot(TM) Client VM
Default Encoding: Cp1252
Language: pt
Country: BR
--></g></svg>