<?xml version="1.0" encoding="UTF-8" standalone="no"?><svg xmlns="http://www.w3.org/2000/svg" xmlns:xlink="http://www.w3.org/1999/xlink" contentScriptType="application/ecmascript" contentStyleType="text/css" height="960px" preserveAspectRatio="none" style="width:536px;height:960px;background:#FFFFFF;" version="1.1" viewBox="0 0 536 960" width="536px" zoomAndPan="magnify"><defs><filter height="300%" id="fweu7q0qn3slv" width="300%" x="-1" y="-1"><feGaussianBlur result="blurOut" stdDeviation="2.0"/><feColorMatrix in="blurOut" result="blurOut2" type="matrix" values="0 0 0 0 0 0 0 0 0 0 0 0 0 0 0 0 0 0 .4 0"/><feOffset dx="4.0" dy="4.0" in="blurOut2" result="blurOut3"/><feBlend in="SourceGraphic" in2="blurOut3" mode="normal"/></filter></defs><g><!--MD5=[a556fb40a11f726d4e4217c612fd5343]
class OptionForm--><rect codeLine="1" fill="#FEFECE" filter="url(#fweu7q0qn3slv)" height="831" id="OptionForm" style="stroke:#A80036;stroke-width:1.5;" width="515" x="7" y="115"/><ellipse cx="227.75" cy="135.0938" fill="#ADD1B2" rx="11" ry="11" style="stroke:#A80036;stroke-width:1.0;"/><path d="M230.5156,130.9688 Q230.6719,130.75 230.8594,130.6406 Q231.0469,130.5313 231.2656,130.5313 Q231.6406,130.5313 231.875,130.7891 Q232.1094,131.0469 232.1094,131.6563 L232.1094,133.1094 Q232.1094,133.7188 231.875,133.9844 Q231.6406,134.25 231.2656,134.25 Q230.9219,134.25 230.7188,134.0469 Q230.5156,133.8594 230.4063,133.3438 Q230.3594,132.9844 230.1719,132.7969 Q229.8438,132.4219 229.2344,132.2031 Q228.625,131.9844 228,131.9844 Q227.2344,131.9844 226.6016,132.3125 Q225.9688,132.6406 225.4766,133.3906 Q224.9844,134.1406 224.9844,135.1719 L224.9844,136.2656 Q224.9844,137.5 225.875,138.3203 Q226.7656,139.1406 228.3594,139.1406 Q229.2969,139.1406 229.9531,138.8906 Q230.3438,138.7344 230.7656,138.2969 Q231.0313,138.0313 231.1797,137.9531 Q231.3281,137.875 231.5313,137.875 Q231.8594,137.875 232.1172,138.1328 Q232.375,138.3906 232.375,138.7344 Q232.375,139.0781 232.0313,139.4844 Q231.5313,140.0625 230.7344,140.3906 Q229.6563,140.8438 228.3594,140.8438 Q226.8438,140.8438 225.6406,140.2188 Q224.6563,139.7188 223.9688,138.6484 Q223.2813,137.5781 223.2813,136.2969 L223.2813,135.1406 Q223.2813,133.8125 223.8984,132.6641 Q224.5156,131.5156 225.6094,130.8984 Q226.7031,130.2813 227.9375,130.2813 Q228.6719,130.2813 229.3203,130.4453 Q229.9688,130.6094 230.5156,130.9688 Z " fill="#000000"/><text fill="#000000" font-family="sans-serif" font-size="12" font-style="italic" lengthAdjust="spacing" textLength="48" x="256.75" y="132.457">«partial»</text><text fill="#000000" font-family="sans-serif" font-size="12" lengthAdjust="spacing" textLength="65" x="248.25" y="147.5508">OptionForm</text><line style="stroke:#A80036;stroke-width:1.5;" x1="8" x2="521" y1="155.1875" y2="155.1875"/><rect fill="none" height="6" style="stroke:#C82930;stroke-width:1.0;" width="6" x="15" y="163.1875"/><text fill="#000000" font-family="sans-serif" font-size="11" lengthAdjust="spacing" textLength="119" x="27" y="170.6064">OriginalOptions : Options</text><rect fill="none" height="6" style="stroke:#C82930;stroke-width:1.0;" width="6" x="15" y="177.0234"/><text fill="#000000" font-family="sans-serif" font-size="11" lengthAdjust="spacing" textLength="139" x="27" y="184.4424">OriginalTheme : GraphTheme</text><rect fill="none" height="6" style="stroke:#C82930;stroke-width:1.0;" width="6" x="15" y="190.8594"/><text fill="#000000" font-family="sans-serif" font-size="11" lengthAdjust="spacing" textLength="83" x="27" y="198.2783">Options : Options</text><rect fill="none" height="6" style="stroke:#C82930;stroke-width:1.0;" width="6" x="15" y="204.6953"/><text fill="#000000" font-family="sans-serif" font-size="11" lengthAdjust="spacing" textLength="103" x="27" y="212.1143">Theme : GraphTheme</text><rect fill="none" height="6" style="stroke:#C82930;stroke-width:1.0;" width="6" x="15" y="218.5313"/><text fill="#000000" font-family="sans-serif" font-size="11" lengthAdjust="spacing" textLength="85" x="27" y="225.9502">Version : Version</text><rect fill="none" height="6" style="stroke:#C82930;stroke-width:1.0;" width="6" x="15" y="232.3672"/><text fill="#000000" font-family="sans-serif" font-size="11" lengthAdjust="spacing" textLength="181" x="27" y="239.7861">ActiveCounter : CounterOptions = null</text><rect fill="none" height="6" style="stroke:#C82930;stroke-width:1.0;" width="6" x="15" y="246.2031"/><text fill="#000000" font-family="sans-serif" font-size="11" lengthAdjust="spacing" textLength="105" x="27" y="253.6221">initializing : bool = true</text><text fill="#000000" font-family="sans-serif" font-size="11" lengthAdjust="spacing" textLength="466" x="27" y="267.458">AvailableGraphTypes : Dictionary&lt;string, IList&lt;TaskbarMonitor.Counters.ICounter.CounterType&gt;&gt;</text><text fill="#000000" font-family="sans-serif" font-size="11" lengthAdjust="spacing" textLength="216" x="27" y="281.2939">originalControl : SystemWatcherControl = null</text><rect fill="none" height="6" style="stroke:#C82930;stroke-width:1.0;" width="6" x="15" y="287.7109"/><text fill="#000000" font-family="sans-serif" font-size="11" lengthAdjust="spacing" textLength="107" x="27" y="295.1299">ChosenTitleFont : Font</text><rect fill="none" height="6" style="stroke:#C82930;stroke-width:1.0;" width="6" x="15" y="301.5469"/><text fill="#000000" font-family="sans-serif" font-size="11" lengthAdjust="spacing" textLength="152" x="27" y="308.9658">ChosenCurrentValueFont : Font</text><line style="stroke:#A80036;stroke-width:1.5;" x1="8" x2="521" y1="315.3828" y2="315.3828"/><ellipse cx="18" cy="326.3828" fill="#84BE84" rx="3" ry="3" style="stroke:#038048;stroke-width:1.0;"/><text fill="#000000" font-family="sans-serif" font-size="11" lengthAdjust="spacing" textLength="489" x="27" y="330.8018">OptionForm(opt:Options, theme:GraphTheme, version:Version, originalControl:SystemWatcherControl)</text><rect fill="#F24D5C" height="6" style="stroke:#C82930;stroke-width:1.0;" width="6" x="15" y="337.2188"/><text fill="#000000" font-family="sans-serif" font-size="11" lengthAdjust="spacing" textLength="74" x="27" y="344.6377">Initialize() : void</text><rect fill="#F24D5C" height="6" style="stroke:#C82930;stroke-width:1.0;" width="6" x="15" y="351.0547"/><text fill="#000000" font-family="sans-serif" font-size="11" lengthAdjust="spacing" textLength="111" x="27" y="358.4736">UpdatePreview() : void</text><rect fill="#F24D5C" height="6" style="stroke:#C82930;stroke-width:1.0;" width="6" x="15" y="364.8906"/><text fill="#000000" font-family="sans-serif" font-size="11" lengthAdjust="spacing" textLength="318" x="27" y="372.3096">EditHistorySize_ValueChanged(sender:object, e:EventArgs) : void</text><rect fill="#F24D5C" height="6" style="stroke:#C82930;stroke-width:1.0;" width="6" x="15" y="378.7266"/><text fill="#000000" font-family="sans-serif" font-size="11" lengthAdjust="spacing" textLength="301" x="27" y="386.1455">editPollTime_ValueChanged(sender:object, e:EventArgs) : void</text><rect fill="#F24D5C" height="6" style="stroke:#C82930;stroke-width:1.0;" width="6" x="15" y="392.5625"/><text fill="#000000" font-family="sans-serif" font-size="11" lengthAdjust="spacing" textLength="347" x="27" y="399.9814">ListCounters_SelectedIndexChanged(sender:object, e:EventArgs) : void</text><rect fill="#F24D5C" height="6" style="stroke:#C82930;stroke-width:1.0;" width="6" x="15" y="406.3984"/><text fill="#000000" font-family="sans-serif" font-size="11" lengthAdjust="spacing" textLength="180" x="27" y="413.8174">UpdateReplicateSettingsMenu() : void</text><rect fill="#F24D5C" height="6" style="stroke:#C82930;stroke-width:1.0;" width="6" x="15" y="420.2344"/><text fill="#000000" font-family="sans-serif" font-size="11" lengthAdjust="spacing" textLength="378" x="27" y="427.6533">contextMenuStripReplicateSettings_OnClick(sender:object, e:EventArgs) : void</text><rect fill="#F24D5C" height="6" style="stroke:#C82930;stroke-width:1.0;" width="6" x="15" y="434.0703"/><text fill="#000000" font-family="sans-serif" font-size="11" lengthAdjust="spacing" textLength="95" x="27" y="441.4893">UpdateForm() : void</text><rect fill="#F24D5C" height="6" style="stroke:#C82930;stroke-width:1.0;" width="6" x="15" y="447.9063"/><text fill="#000000" font-family="sans-serif" font-size="11" lengthAdjust="spacing" textLength="128" x="27" y="455.3252">UpdateFormScales() : void</text><rect fill="#F24D5C" height="6" style="stroke:#C82930;stroke-width:1.0;" width="6" x="15" y="461.7422"/><text fill="#000000" font-family="sans-serif" font-size="11" lengthAdjust="spacing" textLength="123" x="27" y="469.1611">UpdateFormOrder() : void</text><rect fill="#F24D5C" height="6" style="stroke:#C82930;stroke-width:1.0;" width="6" x="15" y="475.5781"/><text fill="#000000" font-family="sans-serif" font-size="11" lengthAdjust="spacing" textLength="124" x="27" y="482.9971">UpdateFormShow() : void</text><rect fill="#F24D5C" height="6" style="stroke:#C82930;stroke-width:1.0;" width="6" x="15" y="489.4141"/><text fill="#000000" font-family="sans-serif" font-size="11" lengthAdjust="spacing" textLength="351" x="27" y="496.833">ListShowTitle_SelectedIndexChanged(sender:object, e:EventArgs) : void</text><rect fill="#F24D5C" height="6" style="stroke:#C82930;stroke-width:1.0;" width="6" x="15" y="503.25"/><text fill="#000000" font-family="sans-serif" font-size="11" lengthAdjust="spacing" textLength="392" x="27" y="510.6689">listShowCurrentValue_SelectedIndexChanged(sender:object, e:EventArgs) : void</text><rect fill="#F24D5C" height="6" style="stroke:#C82930;stroke-width:1.0;" width="6" x="15" y="517.0859"/><text fill="#000000" font-family="sans-serif" font-size="11" lengthAdjust="spacing" textLength="353" x="27" y="524.5049">listGraphType_SelectedIndexChanged(sender:object, e:EventArgs) : void</text><rect fill="#F24D5C" height="6" style="stroke:#C82930;stroke-width:1.0;" width="6" x="15" y="530.9219"/><text fill="#000000" font-family="sans-serif" font-size="11" lengthAdjust="spacing" textLength="238" x="27" y="538.3408">btnMenu_Click(sender:object, e:EventArgs) : void</text><rect fill="#F24D5C" height="6" style="stroke:#C82930;stroke-width:1.0;" width="6" x="15" y="544.7578"/><text fill="#000000" font-family="sans-serif" font-size="11" lengthAdjust="spacing" textLength="191" x="27" y="552.1768">UpdateMenuColors(active:Button) : void</text><ellipse cx="18" cy="561.5938" fill="#84BE84" rx="3" ry="3" style="stroke:#038048;stroke-width:1.0;"/><text fill="#000000" font-family="sans-serif" font-size="11" lengthAdjust="spacing" textLength="97" x="27" y="566.0127">OpenTab(i:int) : void</text><rect fill="#F24D5C" height="6" style="stroke:#C82930;stroke-width:1.0;" width="6" x="15" y="572.4297"/><text fill="#000000" font-family="sans-serif" font-size="11" lengthAdjust="spacing" textLength="367" x="27" y="579.8486">linkLabel_LinkClicked(sender:object, e:LinkLabelLinkClickedEventArgs) : void</text><rect fill="#F24D5C" height="6" style="stroke:#C82930;stroke-width:1.0;" width="6" x="15" y="586.2656"/><text fill="#000000" font-family="sans-serif" font-size="11" lengthAdjust="spacing" textLength="363" x="27" y="593.6846">checkShowSummary_CheckedChanged(sender:object, e:EventArgs) : void</text><rect fill="#F24D5C" height="6" style="stroke:#C82930;stroke-width:1.0;" width="6" x="15" y="600.1016"/><text fill="#000000" font-family="sans-serif" font-size="11" lengthAdjust="spacing" textLength="344" x="27" y="607.5205">checkInvertOrder_CheckedChanged(sender:object, e:EventArgs) : void</text><rect fill="#F24D5C" height="6" style="stroke:#C82930;stroke-width:1.0;" width="6" x="15" y="613.9375"/><text fill="#000000" font-family="sans-serif" font-size="11" lengthAdjust="spacing" textLength="276" x="27" y="621.3564">btnCheckUpdate_Click(sender:object, e:EventArgs) : void</text><rect fill="#F24D5C" height="6" style="stroke:#C82930;stroke-width:1.0;" width="6" x="15" y="627.7734"/><text fill="#000000" font-family="sans-serif" font-size="11" lengthAdjust="spacing" textLength="167" x="27" y="635.1924">ChooseColor(sender:Button) : bool</text><rect fill="#F24D5C" height="6" style="stroke:#C82930;stroke-width:1.0;" width="6" x="15" y="641.6094"/><text fill="#000000" font-family="sans-serif" font-size="11" lengthAdjust="spacing" textLength="226" x="27" y="649.0283">ChooseFont(sender:LinkLabel, font:Font) : bool</text><rect fill="#F24D5C" height="6" style="stroke:#C82930;stroke-width:1.0;" width="6" x="15" y="655.4453"/><text fill="#000000" font-family="sans-serif" font-size="11" lengthAdjust="spacing" textLength="254" x="27" y="662.8643">btnColorBar_Click(sender:object, e:EventArgs) : void</text><rect fill="#F24D5C" height="6" style="stroke:#C82930;stroke-width:1.0;" width="6" x="15" y="669.2813"/><text fill="#000000" font-family="sans-serif" font-size="11" lengthAdjust="spacing" textLength="301" x="27" y="676.7002">btnColorCurrentValue_Click(sender:object, e:EventArgs) : void</text><rect fill="#F24D5C" height="6" style="stroke:#C82930;stroke-width:1.0;" width="6" x="15" y="683.1172"/><text fill="#000000" font-family="sans-serif" font-size="11" lengthAdjust="spacing" textLength="342" x="27" y="690.5361">btnColorCurrentValueShadow_Click(sender:object, e:EventArgs) : void</text><rect fill="#F24D5C" height="6" style="stroke:#C82930;stroke-width:1.0;" width="6" x="15" y="696.9531"/><text fill="#000000" font-family="sans-serif" font-size="11" lengthAdjust="spacing" textLength="256" x="27" y="704.3721">btnColorTitle_Click(sender:object, e:EventArgs) : void</text><rect fill="#F24D5C" height="6" style="stroke:#C82930;stroke-width:1.0;" width="6" x="15" y="710.7891"/><text fill="#000000" font-family="sans-serif" font-size="11" lengthAdjust="spacing" textLength="297" x="27" y="718.208">btnColorTitleShadow_Click(sender:object, e:EventArgs) : void</text><rect fill="#F24D5C" height="6" style="stroke:#C82930;stroke-width:1.0;" width="6" x="15" y="724.625"/><text fill="#000000" font-family="sans-serif" font-size="11" lengthAdjust="spacing" textLength="243" x="27" y="732.0439">btnColor1_Click(sender:object, e:EventArgs) : void</text><rect fill="#F24D5C" height="6" style="stroke:#C82930;stroke-width:1.0;" width="6" x="15" y="738.4609"/><text fill="#000000" font-family="sans-serif" font-size="11" lengthAdjust="spacing" textLength="243" x="27" y="745.8799">btnColor2_Click(sender:object, e:EventArgs) : void</text><rect fill="#F24D5C" height="6" style="stroke:#C82930;stroke-width:1.0;" width="6" x="15" y="752.2969"/><text fill="#000000" font-family="sans-serif" font-size="11" lengthAdjust="spacing" textLength="366" x="27" y="759.7158">checkSeparateScales_CheckedChanged(sender:object, e:EventArgs) : void</text><rect fill="#F24D5C" height="6" style="stroke:#C82930;stroke-width:1.0;" width="6" x="15" y="766.1328"/><text fill="#000000" font-family="sans-serif" font-size="11" lengthAdjust="spacing" textLength="378" x="27" y="773.5518">checkTitleShadowHover_CheckedChanged(sender:object, e:EventArgs) : void</text><rect fill="#F24D5C" height="6" style="stroke:#C82930;stroke-width:1.0;" width="6" x="15" y="779.9688"/><text fill="#000000" font-family="sans-serif" font-size="11" lengthAdjust="spacing" textLength="355" x="27" y="787.3877">listTitlePosition_SelectedIndexChanged(sender:object, e:EventArgs) : void</text><rect fill="#F24D5C" height="6" style="stroke:#C82930;stroke-width:1.0;" width="6" x="15" y="793.8047"/><text fill="#000000" font-family="sans-serif" font-size="11" lengthAdjust="spacing" textLength="387" x="27" y="801.2236">checkValueShadowHover_CheckedChanged(sender:object, e:EventArgs) : void</text><rect fill="#F24D5C" height="6" style="stroke:#C82930;stroke-width:1.0;" width="6" x="15" y="807.6406"/><text fill="#000000" font-family="sans-serif" font-size="11" lengthAdjust="spacing" textLength="381" x="27" y="815.0596">listSummaryPosition_SelectedIndexChanged(sender:object, e:EventArgs) : void</text><rect fill="#F24D5C" height="6" style="stroke:#C82930;stroke-width:1.0;" width="6" x="15" y="821.4766"/><text fill="#000000" font-family="sans-serif" font-size="11" lengthAdjust="spacing" textLength="409" x="27" y="828.8955">linkLatestVersion_LinkClicked(sender:object, e:LinkLabelLinkClickedEventArgs) : void</text><rect fill="#F24D5C" height="6" style="stroke:#C82930;stroke-width:1.0;" width="6" x="15" y="835.3125"/><text fill="#000000" font-family="sans-serif" font-size="11" lengthAdjust="spacing" textLength="233" x="27" y="842.7314">button3_Click(sender:object, e:EventArgs) : void</text><rect fill="#F24D5C" height="6" style="stroke:#C82930;stroke-width:1.0;" width="6" x="15" y="849.1484"/><text fill="#000000" font-family="sans-serif" font-size="11" lengthAdjust="spacing" textLength="295" x="27" y="856.5674">buttonResetDefaults_Click(sender:object, e:EventArgs) : void</text><rect fill="#F24D5C" height="6" style="stroke:#C82930;stroke-width:1.0;" width="6" x="15" y="862.9844"/><text fill="#000000" font-family="sans-serif" font-size="11" lengthAdjust="spacing" textLength="327" x="27" y="870.4033">checkEnabled_CheckedChanged(sender:object, e:EventArgs) : void</text><rect fill="#F24D5C" height="6" style="stroke:#C82930;stroke-width:1.0;" width="6" x="15" y="876.8203"/><text fill="#000000" font-family="sans-serif" font-size="11" lengthAdjust="spacing" textLength="255" x="27" y="884.2393">buttonApply_Click(sender:object, e:EventArgs) : void</text><rect fill="#F24D5C" height="6" style="stroke:#C82930;stroke-width:1.0;" width="6" x="15" y="890.6563"/><text fill="#000000" font-family="sans-serif" font-size="11" lengthAdjust="spacing" textLength="381" x="27" y="898.0752">linkTitleFont_LinkClicked(sender:object, e:LinkLabelLinkClickedEventArgs) : void</text><rect fill="#F24D5C" height="6" style="stroke:#C82930;stroke-width:1.0;" width="6" x="15" y="904.4922"/><text fill="#000000" font-family="sans-serif" font-size="11" lengthAdjust="spacing" textLength="426" x="27" y="911.9111">linkCurrentValueFont_LinkClicked(sender:object, e:LinkLabelLinkClickedEventArgs) : void</text><rect fill="#F24D5C" height="6" style="stroke:#C82930;stroke-width:1.0;" width="6" x="15" y="918.3281"/><text fill="#000000" font-family="sans-serif" font-size="11" lengthAdjust="spacing" textLength="355" x="27" y="925.7471">listThemeType_SelectedIndexChanged(sender:object, e:EventArgs) : void</text><rect fill="#F24D5C" height="6" style="stroke:#C82930;stroke-width:1.0;" width="6" x="15" y="932.1641"/><text fill="#000000" font-family="sans-serif" font-size="11" lengthAdjust="spacing" textLength="140" x="27" y="939.583">UpdateThemeOptions() : void</text><!--MD5=[6f29f313cd4199edbf91b9ce3a4faa98]
class Form--><rect fill="#FEFECE" filter="url(#fweu7q0qn3slv)" height="48" id="Form" style="stroke:#A80036;stroke-width:1.5;" width="61" x="234" y="7"/><ellipse cx="249" cy="23" fill="#ADD1B2" rx="11" ry="11" style="stroke:#A80036;stroke-width:1.0;"/><path d="M251.7656,18.875 Q251.9219,18.6563 252.1094,18.5469 Q252.2969,18.4375 252.5156,18.4375 Q252.8906,18.4375 253.125,18.6953 Q253.3594,18.9531 253.3594,19.5625 L253.3594,21.0156 Q253.3594,21.625 253.125,21.8906 Q252.8906,22.1563 252.5156,22.1563 Q252.1719,22.1563 251.9688,21.9531 Q251.7656,21.7656 251.6563,21.25 Q251.6094,20.8906 251.4219,20.7031 Q251.0938,20.3281 250.4844,20.1094 Q249.875,19.8906 249.25,19.8906 Q248.4844,19.8906 247.8516,20.2188 Q247.2188,20.5469 246.7266,21.2969 Q246.2344,22.0469 246.2344,23.0781 L246.2344,24.1719 Q246.2344,25.4063 247.125,26.2266 Q248.0156,27.0469 249.6094,27.0469 Q250.5469,27.0469 251.2031,26.7969 Q251.5938,26.6406 252.0156,26.2031 Q252.2813,25.9375 252.4297,25.8594 Q252.5781,25.7813 252.7813,25.7813 Q253.1094,25.7813 253.3672,26.0391 Q253.625,26.2969 253.625,26.6406 Q253.625,26.9844 253.2813,27.3906 Q252.7813,27.9688 251.9844,28.2969 Q250.9063,28.75 249.6094,28.75 Q248.0938,28.75 246.8906,28.125 Q245.9063,27.625 245.2188,26.5547 Q244.5313,25.4844 244.5313,24.2031 L244.5313,23.0469 Q244.5313,21.7188 245.1484,20.5703 Q245.7656,19.4219 246.8594,18.8047 Q247.9531,18.1875 249.1875,18.1875 Q249.9219,18.1875 250.5703,18.3516 Q251.2188,18.5156 251.7656,18.875 Z " fill="#000000"/><text fill="#000000" font-family="sans-serif" font-size="12" lengthAdjust="spacing" textLength="29" x="263" y="27.9102">Form</text><line style="stroke:#A80036;stroke-width:1.5;" x1="235" x2="294" y1="39" y2="39"/><line style="stroke:#A80036;stroke-width:1.5;" x1="235" x2="294" y1="47" y2="47"/><!--MD5=[af5a0acb9cd7e59ea5f8d27a2cc2fac4]
reverse link Form to OptionForm--><path codeLine="59" d="M264.5,75.41 C264.5,86.82 264.5,100.12 264.5,114.84 " fill="none" id="Form-backto-OptionForm" style="stroke:#A80036;stroke-width:1.0;"/><polygon fill="none" points="257.5,75.33,264.5,55.33,271.5,75.33,257.5,75.33" style="stroke:#A80036;stroke-width:1.0;"/><!--MD5=[816e353ae6a32e28d4637c24de4e3cba]
@startuml
class OptionForm <<partial>> {
    - OriginalOptions : Options
    - OriginalTheme : GraphTheme
    - Options : Options
    - Theme : GraphTheme
    - Version : Version
    - ActiveCounter : CounterOptions = null
    - initializing : bool = true
    AvailableGraphTypes : Dictionary<string, IList<TaskbarMonitor.Counters.ICounter.CounterType>>
    originalControl : SystemWatcherControl = null
    - ChosenTitleFont : Font
    - ChosenCurrentValueFont : Font
    + OptionForm(opt:Options, theme:GraphTheme, version:Version, originalControl:SystemWatcherControl)
    - Initialize() : void
    - UpdatePreview() : void
    - EditHistorySize_ValueChanged(sender:object, e:EventArgs) : void
    - editPollTime_ValueChanged(sender:object, e:EventArgs) : void
    - ListCounters_SelectedIndexChanged(sender:object, e:EventArgs) : void
    - UpdateReplicateSettingsMenu() : void
    - contextMenuStripReplicateSettings_OnClick(sender:object, e:EventArgs) : void
    - UpdateForm() : void
    - UpdateFormScales() : void
    - UpdateFormOrder() : void
    - UpdateFormShow() : void
    - ListShowTitle_SelectedIndexChanged(sender:object, e:EventArgs) : void
    - listShowCurrentValue_SelectedIndexChanged(sender:object, e:EventArgs) : void
    - listGraphType_SelectedIndexChanged(sender:object, e:EventArgs) : void
    - btnMenu_Click(sender:object, e:EventArgs) : void
    - UpdateMenuColors(active:Button) : void
    + OpenTab(i:int) : void
    - linkLabel_LinkClicked(sender:object, e:LinkLabelLinkClickedEventArgs) : void
    - checkShowSummary_CheckedChanged(sender:object, e:EventArgs) : void
    - checkInvertOrder_CheckedChanged(sender:object, e:EventArgs) : void
    - btnCheckUpdate_Click(sender:object, e:EventArgs) : void
    - ChooseColor(sender:Button) : bool
    - ChooseFont(sender:LinkLabel, font:Font) : bool
    - btnColorBar_Click(sender:object, e:EventArgs) : void
    - btnColorCurrentValue_Click(sender:object, e:EventArgs) : void
    - btnColorCurrentValueShadow_Click(sender:object, e:EventArgs) : void
    - btnColorTitle_Click(sender:object, e:EventArgs) : void
    - btnColorTitleShadow_Click(sender:object, e:EventArgs) : void
    - btnColor1_Click(sender:object, e:EventArgs) : void
    - btnColor2_Click(sender:object, e:EventArgs) : void
    - checkSeparateScales_CheckedChanged(sender:object, e:EventArgs) : void
    - checkTitleShadowHover_CheckedChanged(sender:object, e:EventArgs) : void
    - listTitlePosition_SelectedIndexChanged(sender:object, e:EventArgs) : void
    - checkValueShadowHover_CheckedChanged(sender:object, e:EventArgs) : void
    - listSummaryPosition_SelectedIndexChanged(sender:object, e:EventArgs) : void
    - linkLatestVersion_LinkClicked(sender:object, e:LinkLabelLinkClickedEventArgs) : void
    - button3_Click(sender:object, e:EventArgs) : void
    - buttonResetDefaults_Click(sender:object, e:EventArgs) : void
    - checkEnabled_CheckedChanged(sender:object, e:EventArgs) : void
    - buttonApply_Click(sender:object, e:EventArgs) : void
    - linkTitleFont_LinkClicked(sender:object, e:LinkLabelLinkClickedEventArgs) : void
    - linkCurrentValueFont_LinkClicked(sender:object, e:LinkLabelLinkClickedEventArgs) : void
    - listThemeType_SelectedIndexChanged(sender:object, e:EventArgs) : void
    - UpdateThemeOptions() : void
}
Form <|- - OptionForm
@enduml

PlantUML version 1.2021.10(Mon Aug 30 10:43:48 BRT 2021)
(GPL source distribution)
Java Runtime: Java(TM) SE Runtime Environment
JVM: Java HotSpot(TM) Client VM
Default Encoding: Cp1252
Language: pt
Country: BR
--></g></svg>