<?xml version="1.0" encoding="UTF-8" standalone="no"?><svg xmlns="http://www.w3.org/2000/svg" xmlns:xlink="http://www.w3.org/1999/xlink" contentScriptType="application/ecmascript" contentStyleType="text/css" height="398px" preserveAspectRatio="none" style="width:772px;height:398px;background:#FFFFFF;" version="1.1" viewBox="0 0 772 398" width="772px" zoomAndPan="magnify"><defs><filter height="300%" id="fpnm3s25nl4ii" width="300%" x="-1" y="-1"><feGaussianBlur result="blurOut" stdDeviation="2.0"/><feColorMatrix in="blurOut" result="blurOut2" type="matrix" values="0 0 0 0 0 0 0 0 0 0 0 0 0 0 0 0 0 0 .4 0"/><feOffset dx="4.0" dy="4.0" in="blurOut2" result="blurOut3"/><feBlend in="SourceGraphic" in2="blurOut3" mode="normal"/></filter></defs><g><!--MD5=[a4867f0f4834f6ea89f520c5b0c00377]
class Options--><rect codeLine="1" fill="#FEFECE" filter="url(#fpnm3s25nl4ii)" height="214.0313" id="Options" style="stroke:#A80036;stroke-width:1.5;" width="338" x="7" y="7"/><ellipse cx="150.25" cy="23" fill="#ADD1B2" rx="11" ry="11" style="stroke:#A80036;stroke-width:1.0;"/><path d="M153.0156,18.875 Q153.1719,18.6563 153.3594,18.5469 Q153.5469,18.4375 153.7656,18.4375 Q154.1406,18.4375 154.375,18.6953 Q154.6094,18.9531 154.6094,19.5625 L154.6094,21.0156 Q154.6094,21.625 154.375,21.8906 Q154.1406,22.1563 153.7656,22.1563 Q153.4219,22.1563 153.2188,21.9531 Q153.0156,21.7656 152.9063,21.25 Q152.8594,20.8906 152.6719,20.7031 Q152.3438,20.3281 151.7344,20.1094 Q151.125,19.8906 150.5,19.8906 Q149.7344,19.8906 149.1016,20.2188 Q148.4688,20.5469 147.9766,21.2969 Q147.4844,22.0469 147.4844,23.0781 L147.4844,24.1719 Q147.4844,25.4063 148.375,26.2266 Q149.2656,27.0469 150.8594,27.0469 Q151.7969,27.0469 152.4531,26.7969 Q152.8438,26.6406 153.2656,26.2031 Q153.5313,25.9375 153.6797,25.8594 Q153.8281,25.7813 154.0313,25.7813 Q154.3594,25.7813 154.6172,26.0391 Q154.875,26.2969 154.875,26.6406 Q154.875,26.9844 154.5313,27.3906 Q154.0313,27.9688 153.2344,28.2969 Q152.1563,28.75 150.8594,28.75 Q149.3438,28.75 148.1406,28.125 Q147.1563,27.625 146.4688,26.5547 Q145.7813,25.4844 145.7813,24.2031 L145.7813,23.0469 Q145.7813,21.7188 146.3984,20.5703 Q147.0156,19.4219 148.1094,18.8047 Q149.2031,18.1875 150.4375,18.1875 Q151.1719,18.1875 151.8203,18.3516 Q152.4688,18.5156 153.0156,18.875 Z " fill="#000000"/><text fill="#000000" font-family="sans-serif" font-size="12" lengthAdjust="spacing" textLength="43" x="170.75" y="27.9102">Options</text><line style="stroke:#A80036;stroke-width:1.5;" x1="8" x2="344" y1="39" y2="39"/><ellipse cx="18" cy="50" rx="3" ry="3" style="stroke:#038048;stroke-width:1.0;fill:none;"/><text fill="#000000" font-family="sans-serif" font-size="11" lengthAdjust="spacing" text-decoration="underline" textLength="223" x="27" y="54.4189">«readonly» LATESTOPTIONSVERSION : int = 2</text><ellipse cx="18" cy="63.8359" rx="3" ry="3" style="stroke:#038048;stroke-width:1.0;fill:none;"/><text fill="#000000" font-family="sans-serif" font-size="11" lengthAdjust="spacing" textLength="95" x="27" y="68.2549">OptionsVersion : int</text><ellipse cx="18" cy="77.6719" rx="3" ry="3" style="stroke:#038048;stroke-width:1.0;fill:none;"/><text fill="#000000" font-family="sans-serif" font-size="11" lengthAdjust="spacing" textLength="312" x="27" y="82.0908">CounterOptions : Dictionary&lt;string, CounterOptions&gt; «get» «set»</text><ellipse cx="18" cy="91.5078" rx="3" ry="3" style="stroke:#038048;stroke-width:1.0;fill:none;"/><text fill="#000000" font-family="sans-serif" font-size="11" lengthAdjust="spacing" textLength="159" x="27" y="95.9268">HistorySize : int «get» «set» = 50</text><ellipse cx="18" cy="105.3438" rx="3" ry="3" style="stroke:#038048;stroke-width:1.0;fill:none;"/><text fill="#000000" font-family="sans-serif" font-size="11" lengthAdjust="spacing" textLength="136" x="27" y="109.7627">PollTime : int «get» «set» = 3</text><ellipse cx="18" cy="119.1797" rx="3" ry="3" style="stroke:#038048;stroke-width:1.0;fill:none;"/><text fill="#000000" font-family="sans-serif" font-size="11" lengthAdjust="spacing" textLength="174" x="27" y="123.5986">ThemeType : ThemeList «get» «set»</text><line style="stroke:#A80036;stroke-width:1.5;" x1="8" x2="344" y1="130.0156" y2="130.0156"/><ellipse cx="18" cy="141.0156" fill="#84BE84" rx="3" ry="3" style="stroke:#038048;stroke-width:1.0;"/><text fill="#000000" font-family="sans-serif" font-size="11" lengthAdjust="spacing" textLength="129" x="27" y="145.4346">CopyTo(opt:Options) : void</text><ellipse cx="18" cy="154.8516" fill="#84BE84" rx="3" ry="3" style="stroke:#038048;stroke-width:1.0;"/><text fill="#000000" font-family="sans-serif" font-size="11" lengthAdjust="spacing" text-decoration="underline" textLength="125" x="27" y="159.2705">DefaultOptions() : Options</text><ellipse cx="18" cy="168.6875" fill="#84BE84" rx="3" ry="3" style="stroke:#038048;stroke-width:1.0;"/><text fill="#000000" font-family="sans-serif" font-size="11" lengthAdjust="spacing" text-decoration="underline" textLength="123" x="27" y="173.1064">ReadFromDisk() : Options</text><ellipse cx="18" cy="182.5234" fill="#84BE84" rx="3" ry="3" style="stroke:#038048;stroke-width:1.0;"/><text fill="#000000" font-family="sans-serif" font-size="11" lengthAdjust="spacing" textLength="203" x="27" y="186.9424">Upgrade(graphTheme:GraphTheme) : bool</text><ellipse cx="18" cy="196.3594" fill="#84BE84" rx="3" ry="3" style="stroke:#038048;stroke-width:1.0;"/><text fill="#000000" font-family="sans-serif" font-size="11" lengthAdjust="spacing" textLength="94" x="27" y="200.7783">SaveToDisk() : bool</text><rect fill="#F24D5C" height="6" style="stroke:#C82930;stroke-width:1.0;" width="6" x="15" y="207.1953"/><text fill="#000000" font-family="sans-serif" font-size="11" lengthAdjust="spacing" textLength="209" x="27" y="214.6143">_Upgrade(graphTheme:GraphTheme) : bool</text><!--MD5=[5b5777d1c45664b17c4a46fe8bf910c9]
class CounterOptions--><rect codeLine="15" fill="#FEFECE" filter="url(#fpnm3s25nl4ii)" height="200.1953" id="CounterOptions" style="stroke:#A80036;stroke-width:1.5;" width="378" x="380" y="14"/><ellipse cx="521.25" cy="30" fill="#ADD1B2" rx="11" ry="11" style="stroke:#A80036;stroke-width:1.0;"/><path d="M524.0156,25.875 Q524.1719,25.6563 524.3594,25.5469 Q524.5469,25.4375 524.7656,25.4375 Q525.1406,25.4375 525.375,25.6953 Q525.6094,25.9531 525.6094,26.5625 L525.6094,28.0156 Q525.6094,28.625 525.375,28.8906 Q525.1406,29.1563 524.7656,29.1563 Q524.4219,29.1563 524.2188,28.9531 Q524.0156,28.7656 523.9063,28.25 Q523.8594,27.8906 523.6719,27.7031 Q523.3438,27.3281 522.7344,27.1094 Q522.125,26.8906 521.5,26.8906 Q520.7344,26.8906 520.1016,27.2188 Q519.4688,27.5469 518.9766,28.2969 Q518.4844,29.0469 518.4844,30.0781 L518.4844,31.1719 Q518.4844,32.4063 519.375,33.2266 Q520.2656,34.0469 521.8594,34.0469 Q522.7969,34.0469 523.4531,33.7969 Q523.8438,33.6406 524.2656,33.2031 Q524.5313,32.9375 524.6797,32.8594 Q524.8281,32.7813 525.0313,32.7813 Q525.3594,32.7813 525.6172,33.0391 Q525.875,33.2969 525.875,33.6406 Q525.875,33.9844 525.5313,34.3906 Q525.0313,34.9688 524.2344,35.2969 Q523.1563,35.75 521.8594,35.75 Q520.3438,35.75 519.1406,35.125 Q518.1563,34.625 517.4688,33.5547 Q516.7813,32.4844 516.7813,31.2031 L516.7813,30.0469 Q516.7813,28.7188 517.3984,27.5703 Q518.0156,26.4219 519.1094,25.8047 Q520.2031,25.1875 521.4375,25.1875 Q522.1719,25.1875 522.8203,25.3516 Q523.4688,25.5156 524.0156,25.875 Z " fill="#000000"/><text fill="#000000" font-family="sans-serif" font-size="12" lengthAdjust="spacing" textLength="87" x="541.75" y="34.9102">CounterOptions</text><line style="stroke:#A80036;stroke-width:1.5;" x1="381" x2="757" y1="46" y2="46"/><ellipse cx="391" cy="57" rx="3" ry="3" style="stroke:#038048;stroke-width:1.0;fill:none;"/><text fill="#000000" font-family="sans-serif" font-size="11" lengthAdjust="spacing" textLength="158" x="400" y="61.4189">Enabled : bool «get» «set» = true</text><ellipse cx="391" cy="70.8359" rx="3" ry="3" style="stroke:#038048;stroke-width:1.0;fill:none;"/><text fill="#000000" font-family="sans-serif" font-size="11" lengthAdjust="spacing" textLength="176" x="400" y="75.2549">ShowTitle : DisplayType «get» «set»</text><ellipse cx="391" cy="84.6719" rx="3" ry="3" style="stroke:#038048;stroke-width:1.0;fill:none;"/><text fill="#000000" font-family="sans-serif" font-size="11" lengthAdjust="spacing" textLength="197" x="400" y="89.0908">TitlePosition : DisplayPosition «get» «set»</text><ellipse cx="391" cy="98.5078" rx="3" ry="3" style="stroke:#038048;stroke-width:1.0;fill:none;"/><text fill="#000000" font-family="sans-serif" font-size="11" lengthAdjust="spacing" textLength="252" x="400" y="102.9268">ShowTitleShadowOnHover : bool «get» «set» = true</text><ellipse cx="391" cy="112.3438" rx="3" ry="3" style="stroke:#038048;stroke-width:1.0;fill:none;"/><text fill="#000000" font-family="sans-serif" font-size="11" lengthAdjust="spacing" textLength="221" x="400" y="116.7627">ShowCurrentValue : DisplayType «get» «set»</text><ellipse cx="391" cy="126.1797" rx="3" ry="3" style="stroke:#038048;stroke-width:1.0;fill:none;"/><text fill="#000000" font-family="sans-serif" font-size="11" lengthAdjust="spacing" textLength="297" x="400" y="130.5986">ShowCurrentValueShadowOnHover : bool «get» «set» = true</text><ellipse cx="391" cy="140.0156" rx="3" ry="3" style="stroke:#038048;stroke-width:1.0;fill:none;"/><text fill="#000000" font-family="sans-serif" font-size="11" lengthAdjust="spacing" textLength="243" x="400" y="144.4346">CurrentValueAsSummary : bool «get» «set» = true</text><ellipse cx="391" cy="153.8516" rx="3" ry="3" style="stroke:#038048;stroke-width:1.0;fill:none;"/><text fill="#000000" font-family="sans-serif" font-size="11" lengthAdjust="spacing" textLength="223" x="400" y="158.2705">SummaryPosition : DisplayPosition «get» «set»</text><ellipse cx="391" cy="167.6875" rx="3" ry="3" style="stroke:#038048;stroke-width:1.0;fill:none;"/><text fill="#000000" font-family="sans-serif" font-size="11" lengthAdjust="spacing" textLength="180" x="400" y="172.1064">InvertOrder : bool «get» «set» = false</text><ellipse cx="391" cy="181.5234" rx="3" ry="3" style="stroke:#038048;stroke-width:1.0;fill:none;"/><text fill="#000000" font-family="sans-serif" font-size="11" lengthAdjust="spacing" textLength="197" x="400" y="185.9424">SeparateScales : bool «get» «set» = true</text><ellipse cx="391" cy="195.3594" rx="3" ry="3" style="stroke:#038048;stroke-width:1.0;fill:none;"/><text fill="#000000" font-family="sans-serif" font-size="11" lengthAdjust="spacing" textLength="352" x="400" y="199.7783">GraphType : TaskbarMonitor.Counters.ICounter.CounterType «get» «set»</text><line style="stroke:#A80036;stroke-width:1.5;" x1="381" x2="757" y1="206.1953" y2="206.1953"/><!--MD5=[68dfe63277330f276a88164b30f960ba]
class ThemeList--><rect codeLine="28" fill="#FEFECE" filter="url(#fpnm3s25nl4ii)" height="103.3438" id="ThemeList" style="stroke:#A80036;stroke-width:1.5;" width="91" x="130.5" y="281"/><ellipse cx="145.5" cy="297" fill="#EB937F" rx="11" ry="11" style="stroke:#A80036;stroke-width:1.0;"/><path d="M144.3594,297.7969 L144.3594,300.2969 L148.6875,300.2969 L148.6875,299.375 Q148.6875,298.7656 148.9297,298.5 Q149.1719,298.2344 149.5469,298.2344 Q149.9219,298.2344 150.1563,298.5 Q150.3906,298.7656 150.3906,299.375 L150.3906,302 L142.3906,302 Q141.7656,302 141.5078,301.7656 Q141.25,301.5313 141.25,301.1406 Q141.25,300.7656 141.5156,300.5313 Q141.7813,300.2969 142.3906,300.2969 L142.6563,300.2969 L142.6563,293.6406 L142.3906,293.6406 Q141.7656,293.6406 141.5078,293.4063 Q141.25,293.1719 141.25,292.7813 Q141.25,292.4063 141.5078,292.1719 Q141.7656,291.9375 142.3906,291.9375 L150.0156,291.9375 L150.0156,294.5313 Q150.0156,295.1406 149.7891,295.3984 Q149.5625,295.6563 149.1719,295.6563 Q148.7969,295.6563 148.5625,295.3984 Q148.3281,295.1406 148.3281,294.5313 L148.3281,293.6406 L144.3594,293.6406 L144.3594,296.0938 L145.8438,296.0938 Q145.8438,295.4375 145.9688,295.25 Q146.2344,294.8438 146.7031,294.8438 Q147.0781,294.8438 147.3125,295.1016 Q147.5469,295.3594 147.5469,295.9688 L147.5469,297.9375 Q147.5469,298.4844 147.4219,298.6719 Q147.1563,299.0625 146.7031,299.0625 Q146.2344,299.0625 145.9688,298.6563 Q145.8438,298.4688 145.8438,297.7969 L144.3594,297.7969 Z " fill="#000000"/><text fill="#000000" font-family="sans-serif" font-size="12" lengthAdjust="spacing" textLength="59" x="159.5" y="301.9102">ThemeList</text><line style="stroke:#A80036;stroke-width:1.5;" x1="131.5" x2="220.5" y1="313" y2="313"/><text fill="#000000" font-family="sans-serif" font-size="11" lengthAdjust="spacing" textLength="63" x="136.5" y="328.4189">AUTOMATIC,</text><text fill="#000000" font-family="sans-serif" font-size="11" lengthAdjust="spacing" textLength="32" x="136.5" y="342.2549">DARK,</text><text fill="#000000" font-family="sans-serif" font-size="11" lengthAdjust="spacing" textLength="32" x="136.5" y="356.0908">LIGHT,</text><text fill="#000000" font-family="sans-serif" font-size="11" lengthAdjust="spacing" textLength="46" x="136.5" y="369.9268">CUSTOM,</text><line style="stroke:#A80036;stroke-width:1.5;" x1="131.5" x2="220.5" y1="376.3438" y2="376.3438"/><!--MD5=[5c075f755b7a1853a4c53f008d1e68d4]
class DisplayType--><rect codeLine="34" fill="#FEFECE" filter="url(#fpnm3s25nl4ii)" height="89.5078" id="DisplayType" style="stroke:#A80036;stroke-width:1.5;" width="99" x="447.5" y="287.5"/><ellipse cx="462.5" cy="303.5" fill="#EB937F" rx="11" ry="11" style="stroke:#A80036;stroke-width:1.0;"/><path d="M461.3594,304.2969 L461.3594,306.7969 L465.6875,306.7969 L465.6875,305.875 Q465.6875,305.2656 465.9297,305 Q466.1719,304.7344 466.5469,304.7344 Q466.9219,304.7344 467.1563,305 Q467.3906,305.2656 467.3906,305.875 L467.3906,308.5 L459.3906,308.5 Q458.7656,308.5 458.5078,308.2656 Q458.25,308.0313 458.25,307.6406 Q458.25,307.2656 458.5156,307.0313 Q458.7813,306.7969 459.3906,306.7969 L459.6563,306.7969 L459.6563,300.1406 L459.3906,300.1406 Q458.7656,300.1406 458.5078,299.9063 Q458.25,299.6719 458.25,299.2813 Q458.25,298.9063 458.5078,298.6719 Q458.7656,298.4375 459.3906,298.4375 L467.0156,298.4375 L467.0156,301.0313 Q467.0156,301.6406 466.7891,301.8984 Q466.5625,302.1563 466.1719,302.1563 Q465.7969,302.1563 465.5625,301.8984 Q465.3281,301.6406 465.3281,301.0313 L465.3281,300.1406 L461.3594,300.1406 L461.3594,302.5938 L462.8438,302.5938 Q462.8438,301.9375 462.9688,301.75 Q463.2344,301.3438 463.7031,301.3438 Q464.0781,301.3438 464.3125,301.6016 Q464.5469,301.8594 464.5469,302.4688 L464.5469,304.4375 Q464.5469,304.9844 464.4219,305.1719 Q464.1563,305.5625 463.7031,305.5625 Q463.2344,305.5625 462.9688,305.1563 Q462.8438,304.9688 462.8438,304.2969 L461.3594,304.2969 Z " fill="#000000"/><text fill="#000000" font-family="sans-serif" font-size="12" lengthAdjust="spacing" textLength="67" x="476.5" y="308.4102">DisplayType</text><line style="stroke:#A80036;stroke-width:1.5;" x1="448.5" x2="545.5" y1="319.5" y2="319.5"/><text fill="#000000" font-family="sans-serif" font-size="11" lengthAdjust="spacing" textLength="39" x="453.5" y="334.9189">HIDDEN,</text><text fill="#000000" font-family="sans-serif" font-size="11" lengthAdjust="spacing" textLength="35" x="453.5" y="348.7549">SHOW,</text><text fill="#000000" font-family="sans-serif" font-size="11" lengthAdjust="spacing" textLength="39" x="453.5" y="362.5908">HOVER,</text><line style="stroke:#A80036;stroke-width:1.5;" x1="448.5" x2="545.5" y1="369.0078" y2="369.0078"/><!--MD5=[088a93f72ae4848264e4ce6f08027cb5]
class DisplayPosition--><rect codeLine="39" fill="#FEFECE" filter="url(#fpnm3s25nl4ii)" height="89.5078" id="DisplayPosition" style="stroke:#A80036;stroke-width:1.5;" width="118" x="582" y="287.5"/><ellipse cx="597" cy="303.5" fill="#EB937F" rx="11" ry="11" style="stroke:#A80036;stroke-width:1.0;"/><path d="M595.8594,304.2969 L595.8594,306.7969 L600.1875,306.7969 L600.1875,305.875 Q600.1875,305.2656 600.4297,305 Q600.6719,304.7344 601.0469,304.7344 Q601.4219,304.7344 601.6563,305 Q601.8906,305.2656 601.8906,305.875 L601.8906,308.5 L593.8906,308.5 Q593.2656,308.5 593.0078,308.2656 Q592.75,308.0313 592.75,307.6406 Q592.75,307.2656 593.0156,307.0313 Q593.2813,306.7969 593.8906,306.7969 L594.1563,306.7969 L594.1563,300.1406 L593.8906,300.1406 Q593.2656,300.1406 593.0078,299.9063 Q592.75,299.6719 592.75,299.2813 Q592.75,298.9063 593.0078,298.6719 Q593.2656,298.4375 593.8906,298.4375 L601.5156,298.4375 L601.5156,301.0313 Q601.5156,301.6406 601.2891,301.8984 Q601.0625,302.1563 600.6719,302.1563 Q600.2969,302.1563 600.0625,301.8984 Q599.8281,301.6406 599.8281,301.0313 L599.8281,300.1406 L595.8594,300.1406 L595.8594,302.5938 L597.3438,302.5938 Q597.3438,301.9375 597.4688,301.75 Q597.7344,301.3438 598.2031,301.3438 Q598.5781,301.3438 598.8125,301.6016 Q599.0469,301.8594 599.0469,302.4688 L599.0469,304.4375 Q599.0469,304.9844 598.9219,305.1719 Q598.6563,305.5625 598.2031,305.5625 Q597.7344,305.5625 597.4688,305.1563 Q597.3438,304.9688 597.3438,304.2969 L595.8594,304.2969 Z " fill="#000000"/><text fill="#000000" font-family="sans-serif" font-size="12" lengthAdjust="spacing" textLength="86" x="611" y="308.4102">DisplayPosition</text><line style="stroke:#A80036;stroke-width:1.5;" x1="583" x2="699" y1="319.5" y2="319.5"/><text fill="#000000" font-family="sans-serif" font-size="11" lengthAdjust="spacing" textLength="23" x="588" y="334.9189">TOP,</text><text fill="#000000" font-family="sans-serif" font-size="11" lengthAdjust="spacing" textLength="46" x="588" y="348.7549">BOTTOM,</text><text fill="#000000" font-family="sans-serif" font-size="11" lengthAdjust="spacing" textLength="39" x="588" y="362.5908">MIDDLE,</text><line style="stroke:#A80036;stroke-width:1.5;" x1="583" x2="699" y1="369.0078" y2="369.0078"/><!--MD5=[8cecf242ee57d4dac4e7af90a3c55024]
reverse link Options to ThemeList--><path codeLine="44" d="M176,236.18 C176,251.92 176,267.28 176,280.92 " fill="none" id="Options-backto-ThemeList" style="stroke:#A80036;stroke-width:1.0;"/><ellipse cx="176" cy="229.03" fill="#FFFFFF" rx="8" ry="8" style="stroke:#A80036;stroke-width:1.0;"/><line style="stroke:#A80036;stroke-width:1.0;" x1="176" x2="176" y1="237.03" y2="221.03"/><line style="stroke:#A80036;stroke-width:1.0;" x1="168" x2="184" y1="229.03" y2="229.03"/><!--MD5=[564b5a36603bea039f5f8ec149573e63]
reverse link CounterOptions to DisplayType--><path codeLine="45" d="M531.23,228.57 C524.27,249.51 517.39,270.18 511.65,287.45 " fill="none" id="CounterOptions-backto-DisplayType" style="stroke:#A80036;stroke-width:1.0;"/><ellipse cx="533.537" cy="221.6517" fill="#FFFFFF" rx="8" ry="8" style="stroke:#A80036;stroke-width:1.0;"/><line style="stroke:#A80036;stroke-width:1.0;" x1="531.0141" x2="536.06" y1="229.2435" y2="214.06"/><line style="stroke:#A80036;stroke-width:1.0;" x1="525.9453" x2="541.1288" y1="219.1288" y2="224.1747"/><!--MD5=[07011a99834794916dc0cd05e6c3dcb8]
reverse link CounterOptions to DisplayPosition--><path codeLine="46" d="M606.77,228.57 C613.73,249.51 620.61,270.18 626.35,287.45 " fill="none" id="CounterOptions-backto-DisplayPosition" style="stroke:#A80036;stroke-width:1.0;"/><ellipse cx="604.463" cy="221.6517" fill="#FFFFFF" rx="8" ry="8" style="stroke:#A80036;stroke-width:1.0;"/><line style="stroke:#A80036;stroke-width:1.0;" x1="606.9859" x2="601.94" y1="229.2435" y2="214.06"/><line style="stroke:#A80036;stroke-width:1.0;" x1="596.8712" x2="612.0547" y1="224.1747" y2="219.1288"/><!--MD5=[55d4c7e56b1a354beb268348035a7036]
@startuml
class Options {
    + {static} <<readonly>> LATESTOPTIONSVERSION : int = 2
    + OptionsVersion : int
    + CounterOptions : Dictionary<string, CounterOptions> <<get>> <<set>>
    + HistorySize : int <<get>> <<set>> = 50
    + PollTime : int <<get>> <<set>> = 3
    + ThemeType : ThemeList <<get>> <<set>>
    + CopyTo(opt:Options) : void
    + {static} DefaultOptions() : Options
    + {static} ReadFromDisk() : Options
    + Upgrade(graphTheme:GraphTheme) : bool
    + SaveToDisk() : bool
    - _Upgrade(graphTheme:GraphTheme) : bool
}
class CounterOptions {
    + Enabled : bool <<get>> <<set>> = true
    + ShowTitle : DisplayType <<get>> <<set>>
    + TitlePosition : DisplayPosition <<get>> <<set>>
    + ShowTitleShadowOnHover : bool <<get>> <<set>> = true
    + ShowCurrentValue : DisplayType <<get>> <<set>>
    + ShowCurrentValueShadowOnHover : bool <<get>> <<set>> = true
    + CurrentValueAsSummary : bool <<get>> <<set>> = true
    + SummaryPosition : DisplayPosition <<get>> <<set>>
    + InvertOrder : bool <<get>> <<set>> = false
    + SeparateScales : bool <<get>> <<set>> = true
    + GraphType : TaskbarMonitor.Counters.ICounter.CounterType <<get>> <<set>>
}
enum ThemeList {
    AUTOMATIC,
    DARK,
    LIGHT,
    CUSTOM,
}
enum DisplayType {
    HIDDEN,
    SHOW,
    HOVER,
}
enum DisplayPosition {
    TOP,
    BOTTOM,
    MIDDLE,
}
Options +- - ThemeList
CounterOptions +- - DisplayType
CounterOptions +- - DisplayPosition
@enduml

PlantUML version 1.2021.10(Mon Aug 30 10:43:48 BRT 2021)
(GPL source distribution)
Java Runtime: Java(TM) SE Runtime Environment
JVM: Java HotSpot(TM) Client VM
Default Encoding: Cp1252
Language: pt
Country: BR
--></g></svg>