<?xml version="1.0" encoding="UTF-8" standalone="no"?><svg xmlns="http://www.w3.org/2000/svg" xmlns:xlink="http://www.w3.org/1999/xlink" contentScriptType="application/ecmascript" contentStyleType="text/css" height="343px" preserveAspectRatio="none" style="width:424px;height:343px;background:#FFFFFF;" version="1.1" viewBox="0 0 424 343" width="424px" zoomAndPan="magnify"><defs><filter height="300%" id="f6s7y52chbl0u" width="300%" x="-1" y="-1"><feGaussianBlur result="blurOut" stdDeviation="2.0"/><feColorMatrix in="blurOut" result="blurOut2" type="matrix" values="0 0 0 0 0 0 0 0 0 0 0 0 0 0 0 0 0 0 .4 0"/><feOffset dx="4.0" dy="4.0" in="blurOut2" result="blurOut3"/><feBlend in="SourceGraphic" in2="blurOut3" mode="normal"/></filter></defs><g><!--MD5=[175f95e045c1a44aed0b30df3abe0e5c]
class Program--><rect codeLine="1" fill="#FEFECE" filter="url(#f6s7y52chbl0u)" height="172.5234" id="Program" style="stroke:#A80036;stroke-width:1.5;" width="403" x="7" y="7"/><ellipse cx="180.25" cy="23" fill="#ADD1B2" rx="11" ry="11" style="stroke:#A80036;stroke-width:1.0;"/><path d="M183.0156,18.875 Q183.1719,18.6563 183.3594,18.5469 Q183.5469,18.4375 183.7656,18.4375 Q184.1406,18.4375 184.375,18.6953 Q184.6094,18.9531 184.6094,19.5625 L184.6094,21.0156 Q184.6094,21.625 184.375,21.8906 Q184.1406,22.1563 183.7656,22.1563 Q183.4219,22.1563 183.2188,21.9531 Q183.0156,21.7656 182.9063,21.25 Q182.8594,20.8906 182.6719,20.7031 Q182.3438,20.3281 181.7344,20.1094 Q181.125,19.8906 180.5,19.8906 Q179.7344,19.8906 179.1016,20.2188 Q178.4688,20.5469 177.9766,21.2969 Q177.4844,22.0469 177.4844,23.0781 L177.4844,24.1719 Q177.4844,25.4063 178.375,26.2266 Q179.2656,27.0469 180.8594,27.0469 Q181.7969,27.0469 182.4531,26.7969 Q182.8438,26.6406 183.2656,26.2031 Q183.5313,25.9375 183.6797,25.8594 Q183.8281,25.7813 184.0313,25.7813 Q184.3594,25.7813 184.6172,26.0391 Q184.875,26.2969 184.875,26.6406 Q184.875,26.9844 184.5313,27.3906 Q184.0313,27.9688 183.2344,28.2969 Q182.1563,28.75 180.8594,28.75 Q179.3438,28.75 178.1406,28.125 Q177.1563,27.625 176.4688,26.5547 Q175.7813,25.4844 175.7813,24.2031 L175.7813,23.0469 Q175.7813,21.7188 176.3984,20.5703 Q177.0156,19.4219 178.1094,18.8047 Q179.2031,18.1875 180.4375,18.1875 Q181.1719,18.1875 181.8203,18.3516 Q182.4688,18.5156 183.0156,18.875 Z " fill="#000000"/><text fill="#000000" font-family="sans-serif" font-size="12" lengthAdjust="spacing" textLength="48" x="200.75" y="27.9102">Program</text><line style="stroke:#A80036;stroke-width:1.5;" x1="8" x2="409" y1="39" y2="39"/><text fill="#000000" font-family="sans-serif" font-size="11" lengthAdjust="spacing" text-decoration="underline" textLength="93" x="13" y="54.4189">UninstallGuid : Guid</text><line style="stroke:#A80036;stroke-width:1.5;" x1="8" x2="409" y1="60.8359" y2="60.8359"/><text fill="#000000" font-family="sans-serif" font-size="11" lengthAdjust="spacing" text-decoration="underline" textLength="117" x="27" y="76.2549">Main(args:string[]) : void</text><text fill="#000000" font-family="sans-serif" font-size="11" lengthAdjust="spacing" text-decoration="underline" textLength="130" x="27" y="90.0908">Install(info:InstallInfo) : void</text><text fill="#000000" font-family="sans-serif" font-size="11" lengthAdjust="spacing" text-decoration="underline" textLength="284" x="27" y="103.9268">RegisterDLL(target:string, bit64:bool, unregister:bool) : bool</text><text fill="#000000" font-family="sans-serif" font-size="11" lengthAdjust="spacing" text-decoration="underline" textLength="144" x="27" y="117.7627">RollBack(info:InstallInfo) : bool</text><text fill="#000000" font-family="sans-serif" font-size="11" lengthAdjust="spacing" text-decoration="underline" textLength="212" x="27" y="131.5986">RunProgram(path:string, args:string) : string</text><rect fill="#F24D5C" height="6" style="stroke:#C82930;stroke-width:1.0;" width="6" x="15" y="138.0156"/><text fill="#000000" font-family="sans-serif" font-size="11" lengthAdjust="spacing" text-decoration="underline" textLength="117" x="27" y="145.4346">DeleteUninstaller() : void</text><rect fill="#F24D5C" height="6" style="stroke:#C82930;stroke-width:1.0;" width="6" x="15" y="151.8516"/><text fill="#000000" font-family="sans-serif" font-size="11" lengthAdjust="spacing" text-decoration="underline" textLength="232" x="27" y="159.2705">CreateUninstaller(pathToUninstaller:string) : void</text><text fill="#000000" font-family="sans-serif" font-size="11" lengthAdjust="spacing" text-decoration="underline" textLength="377" x="27" y="173.1064">CleanUpPendingDeleteOperations(basepath:string, errorMessage:string) : bool</text><!--MD5=[73cee6ef5eeef4f17e40d863e6bda979]
class InstallInfo--><rect codeLine="12" fill="#FEFECE" filter="url(#f6s7y52chbl0u)" height="89.5078" id="InstallInfo" style="stroke:#A80036;stroke-width:1.5;" width="274" x="71.5" y="240"/><ellipse cx="177.75" cy="256" fill="#ADD1B2" rx="11" ry="11" style="stroke:#A80036;stroke-width:1.0;"/><path d="M180.5156,251.875 Q180.6719,251.6563 180.8594,251.5469 Q181.0469,251.4375 181.2656,251.4375 Q181.6406,251.4375 181.875,251.6953 Q182.1094,251.9531 182.1094,252.5625 L182.1094,254.0156 Q182.1094,254.625 181.875,254.8906 Q181.6406,255.1563 181.2656,255.1563 Q180.9219,255.1563 180.7188,254.9531 Q180.5156,254.7656 180.4063,254.25 Q180.3594,253.8906 180.1719,253.7031 Q179.8438,253.3281 179.2344,253.1094 Q178.625,252.8906 178,252.8906 Q177.2344,252.8906 176.6016,253.2188 Q175.9688,253.5469 175.4766,254.2969 Q174.9844,255.0469 174.9844,256.0781 L174.9844,257.1719 Q174.9844,258.4063 175.875,259.2266 Q176.7656,260.0469 178.3594,260.0469 Q179.2969,260.0469 179.9531,259.7969 Q180.3438,259.6406 180.7656,259.2031 Q181.0313,258.9375 181.1797,258.8594 Q181.3281,258.7813 181.5313,258.7813 Q181.8594,258.7813 182.1172,259.0391 Q182.375,259.2969 182.375,259.6406 Q182.375,259.9844 182.0313,260.3906 Q181.5313,260.9688 180.7344,261.2969 Q179.6563,261.75 178.3594,261.75 Q176.8438,261.75 175.6406,261.125 Q174.6563,260.625 173.9688,259.5547 Q173.2813,258.4844 173.2813,257.2031 L173.2813,256.0469 Q173.2813,254.7188 173.8984,253.5703 Q174.5156,252.4219 175.6094,251.8047 Q176.7031,251.1875 177.9375,251.1875 Q178.6719,251.1875 179.3203,251.3516 Q179.9688,251.5156 180.5156,251.875 Z " fill="#000000"/><text fill="#000000" font-family="sans-serif" font-size="12" lengthAdjust="spacing" textLength="53" x="198.25" y="260.9102">InstallInfo</text><line style="stroke:#A80036;stroke-width:1.5;" x1="72.5" x2="344.5" y1="272" y2="272"/><ellipse cx="82.5" cy="283" rx="3" ry="3" style="stroke:#038048;stroke-width:1.0;fill:none;"/><text fill="#000000" font-family="sans-serif" font-size="11" lengthAdjust="spacing" textLength="248" x="91.5" y="287.4189">FilesToCopy : Dictionary&lt;string, byte[]&gt; «get» «set»</text><ellipse cx="82.5" cy="296.8359" rx="3" ry="3" style="stroke:#038048;stroke-width:1.0;fill:none;"/><text fill="#000000" font-family="sans-serif" font-size="11" lengthAdjust="spacing" textLength="199" x="91.5" y="301.2549">FilesToRegister : List&lt;string&gt; «get» «set»</text><ellipse cx="82.5" cy="310.6719" rx="3" ry="3" style="stroke:#038048;stroke-width:1.0;fill:none;"/><text fill="#000000" font-family="sans-serif" font-size="11" lengthAdjust="spacing" textLength="148" x="91.5" y="315.0908">TargetPath : string «get» «set»</text><line style="stroke:#A80036;stroke-width:1.5;" x1="72.5" x2="344.5" y1="321.5078" y2="321.5078"/><!--MD5=[4f576aa944ad5ae258e7451f13f130fc]
reverse link Program to InstallInfo--><path codeLine="17" d="M208.5,195.19 C208.5,210.91 208.5,226.41 208.5,239.95 " fill="none" id="Program-backto-InstallInfo" style="stroke:#A80036;stroke-width:1.0;"/><ellipse cx="208.5" cy="188.1" fill="#FFFFFF" rx="8" ry="8" style="stroke:#A80036;stroke-width:1.0;"/><line style="stroke:#A80036;stroke-width:1.0;" x1="208.5" x2="208.5" y1="196.1" y2="180.1"/><line style="stroke:#A80036;stroke-width:1.0;" x1="200.5" x2="216.5" y1="188.1" y2="188.1"/><!--MD5=[0ff0d2e81055da33c6c5a7ecd819d5aa]
@startuml
class Program {
    {static} UninstallGuid : Guid
    {static} Main(args:string[]) : void
    {static} Install(info:InstallInfo) : void
    {static} RegisterDLL(target:string, bit64:bool, unregister:bool) : bool
    {static} RollBack(info:InstallInfo) : bool
    {static} RunProgram(path:string, args:string) : string
    {static} - DeleteUninstaller() : void
    {static} - CreateUninstaller(pathToUninstaller:string) : void
    {static} CleanUpPendingDeleteOperations(basepath:string, errorMessage:string) : bool
}
class InstallInfo {
    + FilesToCopy : Dictionary<string, byte[]> <<get>> <<set>>
    + FilesToRegister : List<string> <<get>> <<set>>
    + TargetPath : string <<get>> <<set>>
}
Program +- - InstallInfo
@enduml

PlantUML version 1.2021.10(Mon Aug 30 10:43:48 BRT 2021)
(GPL source distribution)
Java Runtime: Java(TM) SE Runtime Environment
JVM: Java HotSpot(TM) Client VM
Default Encoding: Cp1252
Language: pt
Country: BR
--></g></svg>