<?xml version="1.0" encoding="UTF-8" standalone="no"?><svg xmlns="http://www.w3.org/2000/svg" xmlns:xlink="http://www.w3.org/1999/xlink" contentScriptType="application/ecmascript" contentStyleType="text/css" height="849px" preserveAspectRatio="none" style="width:987px;height:849px;background:#FFFFFF;" version="1.1" viewBox="0 0 987 849" width="987px" zoomAndPan="magnify"><defs><filter height="300%" id="fy80dhjh17zz5" width="300%" x="-1" y="-1"><feGaussianBlur result="blurOut" stdDeviation="2.0"/><feColorMatrix in="blurOut" result="blurOut2" type="matrix" values="0 0 0 0 0 0 0 0 0 0 0 0 0 0 0 0 0 0 .4 0"/><feOffset dx="4.0" dy="4.0" in="blurOut2" result="blurOut3"/><feBlend in="SourceGraphic" in2="blurOut3" mode="normal"/></filter></defs><g><!--MD5=[1e185160ee1d28decaa2467f8c96cfd6]
class SystemWatcherControl--><rect codeLine="1" fill="#FEFECE" filter="url(#fy80dhjh17zz5)" height="720.3125" id="SystemWatcherControl" style="stroke:#A80036;stroke-width:1.5;" width="964" x="9" y="115"/><ellipse cx="423.75" cy="135.0938" fill="#ADD1B2" rx="11" ry="11" style="stroke:#A80036;stroke-width:1.0;"/><path d="M426.5156,130.9688 Q426.6719,130.75 426.8594,130.6406 Q427.0469,130.5313 427.2656,130.5313 Q427.6406,130.5313 427.875,130.7891 Q428.1094,131.0469 428.1094,131.6563 L428.1094,133.1094 Q428.1094,133.7188 427.875,133.9844 Q427.6406,134.25 427.2656,134.25 Q426.9219,134.25 426.7188,134.0469 Q426.5156,133.8594 426.4063,133.3438 Q426.3594,132.9844 426.1719,132.7969 Q425.8438,132.4219 425.2344,132.2031 Q424.625,131.9844 424,131.9844 Q423.2344,131.9844 422.6016,132.3125 Q421.9688,132.6406 421.4766,133.3906 Q420.9844,134.1406 420.9844,135.1719 L420.9844,136.2656 Q420.9844,137.5 421.875,138.3203 Q422.7656,139.1406 424.3594,139.1406 Q425.2969,139.1406 425.9531,138.8906 Q426.3438,138.7344 426.7656,138.2969 Q427.0313,138.0313 427.1797,137.9531 Q427.3281,137.875 427.5313,137.875 Q427.8594,137.875 428.1172,138.1328 Q428.375,138.3906 428.375,138.7344 Q428.375,139.0781 428.0313,139.4844 Q427.5313,140.0625 426.7344,140.3906 Q425.6563,140.8438 424.3594,140.8438 Q422.8438,140.8438 421.6406,140.2188 Q420.6563,139.7188 419.9688,138.6484 Q419.2813,137.5781 419.2813,136.2969 L419.2813,135.1406 Q419.2813,133.8125 419.8984,132.6641 Q420.5156,131.5156 421.6094,130.8984 Q422.7031,130.2813 423.9375,130.2813 Q424.6719,130.2813 425.3203,130.4453 Q425.9688,130.6094 426.5156,130.9688 Z " fill="#000000"/><text fill="#000000" font-family="sans-serif" font-size="12" font-style="italic" lengthAdjust="spacing" textLength="48" x="483.25" y="132.457">«partial»</text><text fill="#000000" font-family="sans-serif" font-size="12" lengthAdjust="spacing" textLength="126" x="444.25" y="147.5508">SystemWatcherControl</text><line style="stroke:#A80036;stroke-width:1.5;" x1="10" x2="972" y1="155.1875" y2="155.1875"/><ellipse cx="20" cy="166.1875" rx="3" ry="3" style="stroke:#038048;stroke-width:1.0;fill:none;"/><text fill="#000000" font-family="sans-serif" font-size="11" lengthAdjust="spacing" textLength="138" x="29" y="170.6064">SHOW_DEBUG : bool = false</text><text fill="#000000" font-family="sans-serif" font-size="11" lengthAdjust="spacing" textLength="104" x="29" y="184.4424">taskbarHeight : int = 0</text><ellipse cx="20" cy="193.8594" rx="3" ry="3" style="stroke:#038048;stroke-width:1.0;fill:none;"/><text fill="#000000" font-family="sans-serif" font-size="11" lengthAdjust="spacing" textLength="218" x="29" y="198.2783">«event» OnChangeSize : SizeChangeHandler</text><ellipse cx="20" cy="207.6953" rx="3" ry="3" style="stroke:#038048;stroke-width:1.0;fill:none;"/><text fill="#000000" font-family="sans-serif" font-size="11" lengthAdjust="spacing" textLength="145" x="29" y="212.1143">Version : Version «get» «set»</text><ellipse cx="20" cy="221.5313" rx="3" ry="3" style="stroke:#038048;stroke-width:1.0;fill:none;"/><text fill="#000000" font-family="sans-serif" font-size="11" lengthAdjust="spacing" textLength="143" x="29" y="225.9502">Options : Options «get» «set»</text><rect fill="none" height="6" style="stroke:#C82930;stroke-width:1.0;" width="6" x="17" y="232.3672"/><text fill="#000000" font-family="sans-serif" font-size="11" lengthAdjust="spacing" textLength="137" x="29" y="239.7861">_previewMode : bool = false</text><rect fill="none" height="6" style="stroke:#C82930;stroke-width:1.0;" width="6" x="17" y="246.2031"/><text fill="#000000" font-family="sans-serif" font-size="11" lengthAdjust="spacing" textLength="168" x="29" y="253.6221">_contextMenu : ContextMenu = null</text><ellipse cx="20" cy="263.0391" rx="3" ry="3" style="stroke:#038048;stroke-width:1.0;fill:none;"/><text fill="#000000" font-family="sans-serif" font-size="11" lengthAdjust="spacing" textLength="161" x="29" y="267.458">VerticalTaskbarMode : bool «get»</text><rect fill="none" height="6" style="stroke:#C82930;stroke-width:1.0;" width="6" x="17" y="273.875"/><text fill="#000000" font-family="sans-serif" font-size="11" lengthAdjust="spacing" textLength="165" x="29" y="281.2939">pollingTimer : System.Timers.Timer</text><ellipse cx="20" cy="290.7109" rx="3" ry="3" style="stroke:#038048;stroke-width:1.0;fill:none;"/><text fill="#000000" font-family="sans-serif" font-size="11" lengthAdjust="spacing" textLength="155" x="29" y="295.1299">PreviewMode : bool «get» «set»</text><ellipse cx="20" cy="304.5469" rx="3" ry="3" style="stroke:#038048;stroke-width:1.0;fill:none;"/><text fill="#000000" font-family="sans-serif" font-size="11" lengthAdjust="spacing" textLength="122" x="29" y="308.9658">CountersCount : int «get»</text><text fill="#000000" font-family="sans-serif" font-size="11" lengthAdjust="spacing" textLength="169" x="29" y="322.8018">Counters : List&lt;Counters.ICounter&gt;</text><text fill="#000000" font-family="sans-serif" font-size="11" lengthAdjust="spacing" textLength="170" x="29" y="336.6377">fontCounter : System.Drawing.Font</text><text fill="#000000" font-family="sans-serif" font-size="11" lengthAdjust="spacing" textLength="68" x="29" y="350.4736">fontTitle : Font</text><text fill="#000000" font-family="sans-serif" font-size="11" lengthAdjust="spacing" textLength="82" x="29" y="364.3096">lastSize : int = 30</text><text fill="#000000" font-family="sans-serif" font-size="11" lengthAdjust="spacing" textLength="121" x="29" y="378.1455">mouseOver : bool = false</text><ellipse cx="20" cy="387.5625" rx="3" ry="3" style="stroke:#038048;stroke-width:1.0;fill:none;"/><text fill="#000000" font-family="sans-serif" font-size="11" lengthAdjust="spacing" textLength="138" x="29" y="391.9814">customTheme : GraphTheme</text><text fill="#000000" font-family="sans-serif" font-size="11" lengthAdjust="spacing" textLength="124" x="29" y="405.8174">darkTheme : GraphTheme</text><text fill="#000000" font-family="sans-serif" font-size="11" lengthAdjust="spacing" textLength="122" x="29" y="419.6533">lightTheme : GraphTheme</text><text fill="#000000" font-family="sans-serif" font-size="11" lengthAdjust="spacing" textLength="136" x="29" y="433.4893">defaultTheme : GraphTheme</text><text fill="#000000" font-family="sans-serif" font-size="11" lengthAdjust="spacing" textLength="188" x="29" y="447.3252">AssociatedDeskband : Deskband = null</text><text fill="#000000" font-family="sans-serif" font-size="11" lengthAdjust="spacing" textLength="119" x="29" y="461.1611">sTask : TaskbarManager</text><line style="stroke:#A80036;stroke-width:1.5;" x1="10" x2="972" y1="467.5781" y2="467.5781"/><ellipse cx="20" cy="478.5781" fill="#84BE84" rx="3" ry="3" style="stroke:#038048;stroke-width:1.0;"/><text fill="#000000" font-family="sans-serif" font-size="11" lengthAdjust="spacing" textLength="540" x="29" y="482.9971">SystemWatcherControl(opt:Options, addSecondControl:bool, verticalMode:bool, associatedDeskband:Deskband)</text><ellipse cx="20" cy="492.4141" fill="#84BE84" rx="3" ry="3" style="stroke:#038048;stroke-width:1.0;"/><text fill="#000000" font-family="sans-serif" font-size="11" lengthAdjust="spacing" textLength="119" x="29" y="496.833">SystemWatcherControl()</text><ellipse cx="20" cy="506.25" fill="#84BE84" rx="3" ry="3" style="stroke:#038048;stroke-width:1.0;"/><text fill="#000000" font-family="sans-serif" font-size="11" lengthAdjust="spacing" textLength="231" x="29" y="510.6689">SystemWatcherControl(addSecondControl:bool)</text><polygon fill="#FFFF44" points="20,515.0859,24,519.0859,20,523.0859,16,519.0859" style="stroke:#B38D22;stroke-width:1.0;"/><text fill="#000000" font-family="sans-serif" font-size="11" lengthAdjust="spacing" textLength="249" x="29" y="524.5049">«override» OnHandleDestroyed(e:EventArgs) : void</text><rect fill="#F24D5C" height="6" style="stroke:#C82930;stroke-width:1.0;" width="6" x="17" y="530.9219"/><text fill="#000000" font-family="sans-serif" font-size="11" lengthAdjust="spacing" textLength="183" x="29" y="538.3408">GetTheme(opt:Options) : GraphTheme</text><rect fill="#F24D5C" height="6" style="stroke:#C82930;stroke-width:1.0;" width="6" x="17" y="544.7578"/><text fill="#000000" font-family="sans-serif" font-size="11" lengthAdjust="spacing" textLength="381" x="29" y="552.1768">PollingTimer_Elapsed(sender:object, e:System.Timers.ElapsedEventArgs) : void</text><ellipse cx="20" cy="561.5938" fill="#84BE84" rx="3" ry="3" style="stroke:#038048;stroke-width:1.0;"/><text fill="#000000" font-family="sans-serif" font-size="11" lengthAdjust="spacing" textLength="113" x="29" y="566.0127">IsCustomTheme() : bool</text><ellipse cx="20" cy="575.4297" fill="#84BE84" rx="3" ry="3" style="stroke:#038048;stroke-width:1.0;"/><text fill="#000000" font-family="sans-serif" font-size="11" lengthAdjust="spacing" textLength="179" x="29" y="579.8486">ApplyOptions(Options:Options) : void</text><ellipse cx="20" cy="589.2656" fill="#84BE84" rx="3" ry="3" style="stroke:#038048;stroke-width:1.0;"/><text fill="#000000" font-family="sans-serif" font-size="11" lengthAdjust="spacing" textLength="279" x="29" y="593.6846">ApplyOptions(Options:Options, theme:GraphTheme) : void</text><rect fill="#F24D5C" height="6" style="stroke:#C82930;stroke-width:1.0;" width="6" x="17" y="600.1016"/><text fill="#000000" font-family="sans-serif" font-size="11" lengthAdjust="spacing" textLength="129" x="29" y="607.5205">Initialize(opt:Options) : void</text><rect fill="#F24D5C" height="6" style="stroke:#C82930;stroke-width:1.0;" width="6" x="17" y="613.9375"/><text fill="#000000" font-family="sans-serif" font-size="11" lengthAdjust="spacing" textLength="123" x="29" y="621.3564">AdjustControlSize() : void</text><rect fill="#F24D5C" height="6" style="stroke:#C82930;stroke-width:1.0;" width="6" x="17" y="627.7734"/><text fill="#000000" font-family="sans-serif" font-size="11" lengthAdjust="spacing" textLength="107" x="29" y="635.1924">UpdateGraphs() : void</text><rect fill="#F24D5C" height="6" style="stroke:#C82930;stroke-width:1.0;" width="6" x="17" y="641.6094"/><text fill="#000000" font-family="sans-serif" font-size="11" lengthAdjust="spacing" textLength="332" x="29" y="649.0283">SystemWatcherControl_Paint(sender:object, e:PaintEventArgs) : void</text><rect fill="#F24D5C" height="6" style="stroke:#C82930;stroke-width:1.0;" width="6" x="17" y="655.4453"/><text fill="#000000" font-family="sans-serif" font-size="11" lengthAdjust="spacing" textLength="864" x="29" y="662.8643">drawGraph(formGraphics:System.Drawing.Graphics, x:int, y:int, maxH:int, invertido:bool, info:TaskbarMonitor.Counters.CounterInfo, theme:GraphTheme, opt:CounterOptions) : void</text><rect fill="#F24D5C" height="6" style="stroke:#C82930;stroke-width:1.0;" width="6" x="17" y="669.2813"/><text fill="#000000" font-family="sans-serif" font-size="11" lengthAdjust="spacing" textLength="938" x="29" y="676.7002">drawStackedGraph(formGraphics:System.Drawing.Graphics, x:int, y:int, maxH:int, invertido:bool, infos:List&lt;TaskbarMonitor.Counters.CounterInfo&gt;, theme:GraphTheme, opt:CounterOptions) : void</text><ellipse cx="20" cy="686.1172" fill="#84BE84" rx="3" ry="3" style="stroke:#038048;stroke-width:1.0;"/><text fill="#000000" font-family="sans-serif" font-size="11" lengthAdjust="spacing" text-decoration="underline" textLength="111" x="29" y="690.5361">GetTaskbarWidth() : int</text><ellipse cx="20" cy="699.9531" fill="#84BE84" rx="3" ry="3" style="stroke:#038048;stroke-width:1.0;"/><text fill="#000000" font-family="sans-serif" font-size="11" lengthAdjust="spacing" text-decoration="underline" textLength="114" x="29" y="704.3721">GetTaskbarHeight() : int</text><rect fill="#F24D5C" height="6" style="stroke:#C82930;stroke-width:1.0;" width="6" x="17" y="710.7891"/><text fill="#000000" font-family="sans-serif" font-size="11" lengthAdjust="spacing" textLength="343" x="29" y="718.208">SystemWatcherControl_MouseEnter(sender:object, e:EventArgs) : void</text><rect fill="#F24D5C" height="6" style="stroke:#C82930;stroke-width:1.0;" width="6" x="17" y="724.625"/><text fill="#000000" font-family="sans-serif" font-size="11" lengthAdjust="spacing" textLength="348" x="29" y="732.0439">SystemWatcherControl_MouseLeave(sender:object, e:EventArgs) : void</text><polygon fill="#FFFF44" points="20,736.4609,24,740.4609,20,744.4609,16,740.4609" style="stroke:#B38D22;stroke-width:1.0;"/><text fill="#000000" font-family="sans-serif" font-size="11" lengthAdjust="spacing" textLength="191" x="29" y="745.8799">«override» WndProc(m:Message) : void</text><rect fill="#F24D5C" height="6" style="stroke:#C82930;stroke-width:1.0;" width="6" x="17" y="752.2969"/><text fill="#000000" font-family="sans-serif" font-size="11" lengthAdjust="spacing" textLength="171" x="29" y="759.7158">OpenSettings(activeIndex:int) : void</text><rect fill="#F24D5C" height="6" style="stroke:#C82930;stroke-width:1.0;" width="6" x="17" y="766.1328"/><text fill="#000000" font-family="sans-serif" font-size="11" lengthAdjust="spacing" textLength="299" x="29" y="773.5518">MenuItem_Settings_onClick(sender:object, e:EventArgs) : void</text><rect fill="#F24D5C" height="6" style="stroke:#C82930;stroke-width:1.0;" width="6" x="17" y="779.9688"/><text fill="#000000" font-family="sans-serif" font-size="11" lengthAdjust="spacing" textLength="289" x="29" y="787.3877">MenuItem_About_onClick(sender:object, e:EventArgs) : void</text><polygon fill="#FFFF44" points="20,791.8047,24,795.8047,20,799.8047,16,795.8047" style="stroke:#B38D22;stroke-width:1.0;"/><text fill="#000000" font-family="sans-serif" font-size="11" lengthAdjust="spacing" textLength="289" x="29" y="801.2236">«override» OnParentBackColorChanged(e:EventArgs) : void</text><rect fill="#F24D5C" height="6" style="stroke:#C82930;stroke-width:1.0;" width="6" x="17" y="807.6406"/><text fill="#000000" font-family="sans-serif" font-size="11" lengthAdjust="spacing" textLength="341" x="29" y="815.0596">SystemWatcherControl_DoubleClick(sender:object, e:EventArgs) : void</text><polygon fill="#FFFF44" points="20,819.4766,24,823.4766,20,827.4766,16,823.4766" style="stroke:#B38D22;stroke-width:1.0;"/><text fill="#000000" font-family="sans-serif" font-size="11" lengthAdjust="spacing" textLength="233" x="29" y="828.8955">«override» OnNotifyMessage(m:Message) : void</text><!--MD5=[4a32f1cef71656ed46b6dd061b81f15d]
class UserControl--><rect fill="#FEFECE" filter="url(#fy80dhjh17zz5)" height="48" id="UserControl" style="stroke:#A80036;stroke-width:1.5;" width="99" x="441.5" y="7"/><ellipse cx="456.5" cy="23" fill="#ADD1B2" rx="11" ry="11" style="stroke:#A80036;stroke-width:1.0;"/><path d="M459.2656,18.875 Q459.4219,18.6563 459.6094,18.5469 Q459.7969,18.4375 460.0156,18.4375 Q460.3906,18.4375 460.625,18.6953 Q460.8594,18.9531 460.8594,19.5625 L460.8594,21.0156 Q460.8594,21.625 460.625,21.8906 Q460.3906,22.1563 460.0156,22.1563 Q459.6719,22.1563 459.4688,21.9531 Q459.2656,21.7656 459.1563,21.25 Q459.1094,20.8906 458.9219,20.7031 Q458.5938,20.3281 457.9844,20.1094 Q457.375,19.8906 456.75,19.8906 Q455.9844,19.8906 455.3516,20.2188 Q454.7188,20.5469 454.2266,21.2969 Q453.7344,22.0469 453.7344,23.0781 L453.7344,24.1719 Q453.7344,25.4063 454.625,26.2266 Q455.5156,27.0469 457.1094,27.0469 Q458.0469,27.0469 458.7031,26.7969 Q459.0938,26.6406 459.5156,26.2031 Q459.7813,25.9375 459.9297,25.8594 Q460.0781,25.7813 460.2813,25.7813 Q460.6094,25.7813 460.8672,26.0391 Q461.125,26.2969 461.125,26.6406 Q461.125,26.9844 460.7813,27.3906 Q460.2813,27.9688 459.4844,28.2969 Q458.4063,28.75 457.1094,28.75 Q455.5938,28.75 454.3906,28.125 Q453.4063,27.625 452.7188,26.5547 Q452.0313,25.4844 452.0313,24.2031 L452.0313,23.0469 Q452.0313,21.7188 452.6484,20.5703 Q453.2656,19.4219 454.3594,18.8047 Q455.4531,18.1875 456.6875,18.1875 Q457.4219,18.1875 458.0703,18.3516 Q458.7188,18.5156 459.2656,18.875 Z " fill="#000000"/><text fill="#000000" font-family="sans-serif" font-size="12" lengthAdjust="spacing" textLength="67" x="470.5" y="27.9102">UserControl</text><line style="stroke:#A80036;stroke-width:1.5;" x1="442.5" x2="539.5" y1="39" y2="39"/><line style="stroke:#A80036;stroke-width:1.5;" x1="442.5" x2="539.5" y1="47" y2="47"/><!--MD5=[6cf03dc54df3600be326674dbb666f8a]
reverse link UserControl to SystemWatcherControl--><path codeLine="51" d="M491,75.3 C491,86.75 491,100.07 491,114.75 " fill="none" id="UserControl-backto-SystemWatcherControl" style="stroke:#A80036;stroke-width:1.0;"/><polygon fill="none" points="484,75.14,491,55.14,498,75.14,484,75.14" style="stroke:#A80036;stroke-width:1.0;"/><!--MD5=[cf55b2c6ad6dfcb89d53f43adc78e7a5]
@startuml
class SystemWatcherControl <<partial>> {
    + SHOW_DEBUG : bool = false
    taskbarHeight : int = 0
    +  <<event>> OnChangeSize : SizeChangeHandler 
    + Version : Version <<get>> <<set>>
    + Options : Options <<get>> <<set>>
    - _previewMode : bool = false
    - _contextMenu : ContextMenu = null
    + VerticalTaskbarMode : bool <<get>>
    - pollingTimer : System.Timers.Timer
    + PreviewMode : bool <<get>> <<set>>
    + CountersCount : int <<get>>
    Counters : List<Counters.ICounter>
    fontCounter : System.Drawing.Font
    fontTitle : Font
    lastSize : int = 30
    mouseOver : bool = false
    + customTheme : GraphTheme
    darkTheme : GraphTheme
    lightTheme : GraphTheme
    defaultTheme : GraphTheme
    AssociatedDeskband : Deskband = null
    sTask : TaskbarManager
    + SystemWatcherControl(opt:Options, addSecondControl:bool, verticalMode:bool, associatedDeskband:Deskband)
    + SystemWatcherControl()
    + SystemWatcherControl(addSecondControl:bool)
    # <<override>> OnHandleDestroyed(e:EventArgs) : void
    - GetTheme(opt:Options) : GraphTheme
    - PollingTimer_Elapsed(sender:object, e:System.Timers.ElapsedEventArgs) : void
    + IsCustomTheme() : bool
    + ApplyOptions(Options:Options) : void
    + ApplyOptions(Options:Options, theme:GraphTheme) : void
    - Initialize(opt:Options) : void
    - AdjustControlSize() : void
    - UpdateGraphs() : void
    - SystemWatcherControl_Paint(sender:object, e:PaintEventArgs) : void
    - drawGraph(formGraphics:System.Drawing.Graphics, x:int, y:int, maxH:int, invertido:bool, info:TaskbarMonitor.Counters.CounterInfo, theme:GraphTheme, opt:CounterOptions) : void
    - drawStackedGraph(formGraphics:System.Drawing.Graphics, x:int, y:int, maxH:int, invertido:bool, infos:List<TaskbarMonitor.Counters.CounterInfo>, theme:GraphTheme, opt:CounterOptions) : void
    + {static} GetTaskbarWidth() : int
    + {static} GetTaskbarHeight() : int
    - SystemWatcherControl_MouseEnter(sender:object, e:EventArgs) : void
    - SystemWatcherControl_MouseLeave(sender:object, e:EventArgs) : void
    # <<override>> WndProc(m:Message) : void
    - OpenSettings(activeIndex:int) : void
    - MenuItem_Settings_onClick(sender:object, e:EventArgs) : void
    - MenuItem_About_onClick(sender:object, e:EventArgs) : void
    # <<override>> OnParentBackColorChanged(e:EventArgs) : void
    - SystemWatcherControl_DoubleClick(sender:object, e:EventArgs) : void
    # <<override>> OnNotifyMessage(m:Message) : void
}
UserControl <|- - SystemWatcherControl
@enduml

PlantUML version 1.2021.10(Mon Aug 30 10:43:48 BRT 2021)
(GPL source distribution)
Java Runtime: Java(TM) SE Runtime Environment
JVM: Java HotSpot(TM) Client VM
Default Encoding: Cp1252
Language: pt
Country: BR
--></g></svg>