<?xml version="1.0" encoding="UTF-8" standalone="no"?><svg xmlns="http://www.w3.org/2000/svg" xmlns:xlink="http://www.w3.org/1999/xlink" contentScriptType="application/ecmascript" contentStyleType="text/css" height="132px" preserveAspectRatio="none" style="width:315px;height:132px;background:#FFFFFF;" version="1.1" viewBox="0 0 315 132" width="315px" zoomAndPan="magnify"><defs><filter height="300%" id="f1k6oj4jik8hg0" width="300%" x="-1" y="-1"><feGaussianBlur result="blurOut" stdDeviation="2.0"/><feColorMatrix in="blurOut" result="blurOut2" type="matrix" values="0 0 0 0 0 0 0 0 0 0 0 0 0 0 0 0 0 0 .4 0"/><feOffset dx="4.0" dy="4.0" in="blurOut2" result="blurOut3"/><feBlend in="SourceGraphic" in2="blurOut3" mode="normal"/></filter></defs><g><!--MD5=[1e185160ee1d28decaa2467f8c96cfd6]
class SystemWatcherControl--><rect codeLine="1" fill="#FEFECE" filter="url(#f1k6oj4jik8hg0)" height="111.5313" id="SystemWatcherControl" style="stroke:#A80036;stroke-width:1.5;" width="294" x="7" y="7"/><ellipse cx="86.75" cy="27.0938" fill="#ADD1B2" rx="11" ry="11" style="stroke:#A80036;stroke-width:1.0;"/><path d="M89.5156,22.9688 Q89.6719,22.75 89.8594,22.6406 Q90.0469,22.5313 90.2656,22.5313 Q90.6406,22.5313 90.875,22.7891 Q91.1094,23.0469 91.1094,23.6563 L91.1094,25.1094 Q91.1094,25.7188 90.875,25.9844 Q90.6406,26.25 90.2656,26.25 Q89.9219,26.25 89.7188,26.0469 Q89.5156,25.8594 89.4063,25.3438 Q89.3594,24.9844 89.1719,24.7969 Q88.8438,24.4219 88.2344,24.2031 Q87.625,23.9844 87,23.9844 Q86.2344,23.9844 85.6016,24.3125 Q84.9688,24.6406 84.4766,25.3906 Q83.9844,26.1406 83.9844,27.1719 L83.9844,28.2656 Q83.9844,29.5 84.875,30.3203 Q85.7656,31.1406 87.3594,31.1406 Q88.2969,31.1406 88.9531,30.8906 Q89.3438,30.7344 89.7656,30.2969 Q90.0313,30.0313 90.1797,29.9531 Q90.3281,29.875 90.5313,29.875 Q90.8594,29.875 91.1172,30.1328 Q91.375,30.3906 91.375,30.7344 Q91.375,31.0781 91.0313,31.4844 Q90.5313,32.0625 89.7344,32.3906 Q88.6563,32.8438 87.3594,32.8438 Q85.8438,32.8438 84.6406,32.2188 Q83.6563,31.7188 82.9688,30.6484 Q82.2813,29.5781 82.2813,28.2969 L82.2813,27.1406 Q82.2813,25.8125 82.8984,24.6641 Q83.5156,23.5156 84.6094,22.8984 Q85.7031,22.2813 86.9375,22.2813 Q87.6719,22.2813 88.3203,22.4453 Q88.9688,22.6094 89.5156,22.9688 Z " fill="#000000"/><text fill="#000000" font-family="sans-serif" font-size="12" font-style="italic" lengthAdjust="spacing" textLength="48" x="146.25" y="24.457">«partial»</text><text fill="#000000" font-family="sans-serif" font-size="12" lengthAdjust="spacing" textLength="126" x="107.25" y="39.5508">SystemWatcherControl</text><line style="stroke:#A80036;stroke-width:1.5;" x1="8" x2="300" y1="47.1875" y2="47.1875"/><rect fill="none" height="6" style="stroke:#C82930;stroke-width:1.0;" width="6" x="15" y="55.1875"/><text fill="#000000" font-family="sans-serif" font-size="11" lengthAdjust="spacing" textLength="268" x="27" y="62.6064">components : System.ComponentModel.IContainer = null</text><rect fill="none" height="6" style="stroke:#C82930;stroke-width:1.0;" width="6" x="15" y="69.0234"/><text fill="#000000" font-family="sans-serif" font-size="11" lengthAdjust="spacing" textLength="201" x="27" y="76.4424">toolTip1 : System.Windows.Forms.ToolTip</text><line style="stroke:#A80036;stroke-width:1.5;" x1="8" x2="300" y1="82.8594" y2="82.8594"/><polygon fill="#FFFF44" points="18,88.8594,22,92.8594,18,96.8594,14,92.8594" style="stroke:#B38D22;stroke-width:1.0;"/><text fill="#000000" font-family="sans-serif" font-size="11" lengthAdjust="spacing" textLength="200" x="27" y="98.2783">«override» Dispose(disposing:bool) : void</text><rect fill="#F24D5C" height="6" style="stroke:#C82930;stroke-width:1.0;" width="6" x="15" y="104.6953"/><text fill="#000000" font-family="sans-serif" font-size="11" lengthAdjust="spacing" textLength="128" x="27" y="112.1143">InitializeComponent() : void</text><!--MD5=[0dc0e11c7b5e0bc0f120038d19b6b4b5]
@startuml
class SystemWatcherControl <<partial>> {
    - components : System.ComponentModel.IContainer = null
    # <<override>> Dispose(disposing:bool) : void
    - InitializeComponent() : void
    - toolTip1 : System.Windows.Forms.ToolTip
}
@enduml

PlantUML version 1.2021.10(Mon Aug 30 10:43:48 BRT 2021)
(GPL source distribution)
Java Runtime: Java(TM) SE Runtime Environment
JVM: Java HotSpot(TM) Client VM
Default Encoding: Cp1252
Language: pt
Country: BR
--></g></svg>